<mxfile host="Electron" modified="2023-07-06T02:20:52.439Z" agent="Mozilla/5.0 (Macintosh; Intel Mac OS X 10_15_7) AppleWebKit/537.36 (KHTML, like Gecko) draw.io/21.5.0 Chrome/112.0.5615.204 Electron/24.5.1 Safari/537.36" etag="4abqWP3TmkVcvcZ9UqDX" version="21.5.0" type="device">
  <diagram name="Page-1" id="FE0FRaBpPQDjVPPkuzxU">
    <mxGraphModel dx="1114" dy="823" grid="1" gridSize="10" guides="1" tooltips="1" connect="1" arrows="1" fold="1" page="1" pageScale="1" pageWidth="850" pageHeight="1100" background="#000000" math="0" shadow="0">
      <root>
        <mxCell id="0" />
        <mxCell id="1" parent="0" />
        <mxCell id="0I8QPs94bmx3Hb5hVzxW-6" value="" style="rounded=0;whiteSpace=wrap;html=1;arcSize=5;strokeColor=none;fontFamily=Times New Roman;" parent="1" vertex="1">
          <mxGeometry x="130" y="340" width="440" height="260" as="geometry" />
        </mxCell>
        <mxCell id="0I8QPs94bmx3Hb5hVzxW-5" value="" style="rounded=0;whiteSpace=wrap;html=1;dashed=1;fillColor=#f5f5f5;fontColor=#333333;strokeColor=#666666;fontFamily=Times New Roman;" parent="1" vertex="1">
          <mxGeometry x="140" y="350" width="420" height="240" as="geometry" />
        </mxCell>
        <mxCell id="0I8QPs94bmx3Hb5hVzxW-4" value="" style="rounded=0;whiteSpace=wrap;html=1;strokeColor=#006EAF;fillColor=#1ba1e2;fontColor=#ffffff;fontFamily=Times New Roman;" parent="1" vertex="1">
          <mxGeometry x="170" y="380" width="360" height="180" as="geometry" />
        </mxCell>
        <mxCell id="0I8QPs94bmx3Hb5hVzxW-3" value="" style="rounded=0;whiteSpace=wrap;html=1;strokeColor=none;fillColor=#f5f5f5;fontColor=#333333;fontFamily=Times New Roman;" parent="1" vertex="1">
          <mxGeometry x="200" y="410" width="300" height="120" as="geometry" />
        </mxCell>
        <mxCell id="0I8QPs94bmx3Hb5hVzxW-1" value="" style="shape=image;verticalLabelPosition=bottom;labelBackgroundColor=default;verticalAlign=top;aspect=fixed;imageAspect=0;image=data:image/png,iVBORw0KGgoAAAANSUhEUgAACWgAAANCCAYAAADxjrfpAAAKrWlDQ1BJQ0MgUHJvZmlsZQAASImVlwdQU1kXgO976SGBQELoEHoTpBNASggtgIJ0sBGSAKGEEAgKNlQWV3BFERHBiq6KKLgWQNaCiGJbFGxYN8gioKyLBVFR+R8wBHf/+f9//jNz5nzvvHPPPffOvW/OA4BM4YrFaTAFgHRRtiTM35sRExvHwPUDGGgACrAEJlxelpgVGhoMEJm2f5cP9wE0Ye9YTeT69/f/VZT5giweAFAowgn8LF46wqcQfckTS7IBQO1F/IZLs8UT3IYwTYIUiHD3BCdN8dAEJ0wyGkzGRISxEaYBgCdxuZIkAEgMxM/I4SUheUheCNuI+EIRwmKEPdLTM/gIH0fYDIlBfKSJ/MyE7/Ik/S1ngjwnl5sk56m1TAreR5glTuPm/p/b8b8lPU06PYcJoqRkSUAYYlWQPetOzQiSsyhhXsg0C/mT8ZOcLA2InGZeFjtumvlcnyD52LR5wdOcKPTjyPNkcyKmWZDlGz7Nkoww+VyJEjZrmrmSmXmlqZFyf7KAI8+flxwRPc05wqh505yVGh40E8OW+yXSMHn9ApG/98y8fvK1p2d9t14hRz42OzkiQL527kz9AhFrJmdWjLw2vsDHdyYmUh4vzvaWzyVOC5XHC9L85f6snHD52GzkQM6MDZXvYQo3MHSaARtkgDREJYABgpEnHwCyBcuyJxbCzhDnSoRJydkMFnLDBAyOiGc9i2FnY2cPwMR9nToO7+iT9xCiX5/xrSMC4C4aHx8/O+ML+gzAKX0AiLIZn2kXAIrIub+6hSeV5Ez5Ju8SBhCBEqAhXwNdYAjMgBWwA07ADXgBXxAIQkAEiAWLAQ8kg3Sk8qVgBVgDCkEx2Ay2gUqwB+wHh8ExcAI0grPgIrgCboDb4B54DGSgD7wCw+ADGIMgCAeRISqkAelBxpAlZAcxIQ/IFwqGwqBYKB5KgkSQFFoBrYOKoVKoEtoH1UC/QGegi9A1qBN6CPVAg9Bb6DOMgkkwDdaBTeDZMBNmwUFwBLwIToIz4Ty4AN4EV8DV8FG4Ab4I34DvwTL4FTyCAigFFB2lj7JCMVFsVAgqDpWIkqBWoYpQ5ahqVB2qGdWOuoOSoYZQn9BYNBXNQFuh3dAB6Eg0D52JXoXeiK5EH0Y3oNvQd9A96GH0NwwZo42xxLhiOJgYTBJmKaYQU445iDmNuYy5h+nDfMBisXSsKdYZG4CNxaZgl2M3Yndh67Et2E5sL3YEh8Np4Cxx7rgQHBeXjSvE7cAdxV3AdeH6cB/xCng9vB3eDx+HF+HX4svxR/Dn8V34fvwYgUIwJrgSQgh8Qi6hhHCA0Ey4RegjjBGViaZEd2IEMYW4hlhBrCNeJj4hvlNQUDBQcFGYryBUyFeoUDiucFWhR+ETSYVkQWKTFpKkpE2kQ6QW0kPSOzKZbEL2IseRs8mbyDXkS+Rn5I+KVEVrRY4iX3G1YpVig2KX4mslgpKxEktpsVKeUrnSSaVbSkMUAsWEwqZwKasoVZQzlAeUEWWqsq1yiHK68kblI8rXlAdUcComKr4qfJUClf0ql1R6qSiqIZVN5VHXUQ9QL1P7aFiaKY1DS6EV047ROmjDqiqqDqpRqstUq1TPqcroKLoJnUNPo5fQT9Dv0z+r6aix1ARqG9Tq1LrURtW11L3UBepF6vXq99Q/azA0fDVSNbZoNGo81URrWmjO11yquVvzsuaQFk3LTYunVaR1QuuRNqxtoR2mvVx7v/ZN7REdXR1/HbHODp1LOkO6dF0v3RTdMt3zuoN6VD0PPaFemd4FvZcMVQaLkcaoYLQxhvW19QP0pfr79Dv0xwxMDSIN1hrUGzw1JBoyDRMNywxbDYeN9IzmGq0wqjV6ZEwwZhonG283bjceNTE1iTZZb9JoMmCqbsoxzTOtNX1iRjbzNMs0qza7a441Z5qnmu8yv20BWzhaJFtUWdyyhC2dLIWWuyw7Z2FmucwSzaqe9cCKZMWyyrGqteqxplsHW6+1brR+PdtodtzsLbPbZ3+zcbRJszlg89hWxTbQdq1ts+1bOws7nl2V3V17sr2f/Wr7Jvs3DpYOAofdDt2OVMe5jusdWx2/Ojk7SZzqnAadjZzjnXc6P2DSmKHMjcyrLhgXb5fVLmddPrk6uWa7nnD9y83KLdXtiNvAHNM5gjkH5vS6G7hz3fe5yzwYHvEeez1knvqeXM9qz+dehl58r4Ne/SxzVgrrKOu1t423xPu09yjblb2S3eKD8vH3KfLp8FXxjfSt9H3mZ+CX5FfrN+zv6L/cvyUAExAUsCXgAUeHw+PUcIYDnQNXBrYFkYLCgyqDngdbBEuCm+fCcwPnbp37ZJ7xPNG8xhAQwgnZGvI01DQ0M/TX+dj5ofOr5r8Isw1bEdYeTg1fEn4k/EOEd0RJxONIs0hpZGuUUtTCqJqo0Wif6NJoWczsmJUxN2I1Y4WxTXG4uKi4g3EjC3wXbFvQt9BxYeHC+4tMFy1bdG2x5uK0xeeWKC3hLjkZj4mPjj8S/4Ubwq3mjiRwEnYmDPPYvO28V3wvfhl/UOAuKBX0J7onliYOJLknbU0aTPZMLk8eErKFlcI3KQEpe1JGU0NSD6WOp0Wn1afj0+PTz4hURKmitgzdjGUZnWJLcaFYlumauS1zWBIkOZgFZS3KasqmIY3RTamZ9AdpT45HTlXOx6VRS08uU14mWnYz1yJ3Q25/nl/ez8vRy3nLW1for1izomcla+W+VdCqhFWtqw1XF6zuy/fPP7yGuCZ1zW9rbdaWrn2/Lnpdc4FOQX5B7w/+P9QWKhZKCh+sd1u/50f0j8IfOzbYb9ix4VsRv+h6sU1xefGXjbyN13+y/anip/FNiZs6SpxKdm/GbhZtvr/Fc8vhUuXSvNLerXO3NpQxyorK3m9bsu1auUP5nu3E7dLtsorgiqYdRjs27/hSmVx5r8q7qn6n9s4NO0d38Xd17fbaXbdHZ0/xns97hXu79/nva6g2qS7fj92fs//FgagD7T8zf645qHmw+ODXQ6JDssNhh9tqnGtqjmgfKamFa6W1g0cXHr19zOdYU51V3b56en3xcXBcevzlL/G/3D8RdKL1JPNk3SnjUztPU08XNUANuQ3DjcmNsqbYps4zgWdam92aT/9q/euhs/pnq86pnis5TzxfcH78Qt6FkRZxy9DFpIu9rUtaH1+KuXS3bX5bx+Wgy1ev+F251M5qv3DV/erZa67XzlxnXm+84XSj4abjzdO/Of52usOpo+GW862m2y63mzvndJ7v8uy6eMfnzpW7nLs37s2713k/8n73g4UPZN387oGHaQ/fPMp5NPY4/wnmSdFTytPyZ9rPqn83/71e5iQ71+PTc/N5+PPHvbzeV39k/fGlr+AF+UV5v15/zYDdwNlBv8HbLxe87HslfjU2VPin8p87X5u9PvWX1183h2OG+95I3oy/3fhO492h9w7vW0dCR559SP8wNlr0UePj4U/MT+2foz/3jy39gvtS8dX8a/O3oG9PxtPHx8VcCXeyFUAhCicmAvD2EADkWACot5H+YcFUPz0p0NQ/wCSB/8RTPfekOAFQh5iJtojdAsBxRE3ykdyITrREEV4AtreX63TvO9mnTwgW+WPZ6zNBD7cuygf/kKke/ru6/2nBRFYH8E/7L4MABz5o5qEgAAAAOGVYSWZNTQAqAAAACAABh2kABAAAAAEAAAAaAAAAAAACoAIABAAAAAEAAAlooAMABAAAAAEAAANCAAAAAKl9JM0AAEAASURBVHgB7N0JlJxVnTDuX3dXOlt3JwHCHiAkYREkMUCDyqYEV1BUZPlgBg8oHnUUxYMOo6OgjJ7R+RDXGZk5LuDyRwFRPzZBYUCUzQghBDRhkyWBACGdkLWXf93WLuqt7uruqlSbSue55xR99/e+T1VS1cUv9zb05FNIBAgQIECAAAECBAgQIECAAAECBAgQIECAAAECBAgQIECAAAECBAgQIFBzgcaaz2hCAgQIECBAgAABAgQIECBAgAABAgQIECBAgAABAgQIECBAgAABAgQIEOgVEKDlhUCAAAECBAgQIECAAAECBAgQIECAAAECBAgQIECAAAECBAgQIECAAIEREhCgNUKwpiVAgAABAgQIECBAgAABAgQIECBAgAABAgQIECBAgAABAgQIECBAgIAALa8BAgQIECBAgAABAgQIECBAgAABAgQIECBAgAABAgQIECBAgAABAgQIjJCAAK0RgjUtAQIECBAgQIAAAQIECBAgQIAAAQIECBAgQIAAAQIECBAgQIAAAQIEBGh5DRAgQIAAAQIECBAgQIAAAQIECBAgQIAAAQIECBAgQIAAAQIECBAgQGCEBARojRCsaQkQIECAAAECBAgQIECAAAECBAgQIECAAAECBAgQIECAAAECBAgQICBAy2uAAAECBAgQIECAAAECBAgQIECAAAECBAgQIECAAAECBAgQIECAAAECIyQgQGuEYE1LgAABAgQIECBAgAABAgQIECBAgAABAgQIECBAgAABAgQIECBAgAABAVpeAwQIECBAgAABAgQIECBAgAABAgQIECBAgAABAgQIECBAgAABAgQIEBghAQFaIwRrWgIECBAgQIAAAQIECBAgQIAAAQIECBAgQIAAAQIECBAgQIAAAQIECAjQ8hogQIAAAQIECBAgQIAAAQIECBAgQIAAAQIECBAgQIAAAQIECBAgQIDACAkI0BohWNMSIECAAAECBAgQIECAAAECBAgQIECAAAECBAgQIECAAAECBAgQIEBAgJbXAAECBAgQIECAAAECBAgQIECAAAECBAgQIECAAAECBAgQIECAAAECBEZIQIDWCMGalgABAgQIECBAgAABAgQIECBAgAABAgQIECBAgAABAgQIECBAgAABAgK0vAYIECBAgAABAgQIECBAgAABAgQIECBAgAABAgQIECBAgAABAgQIECAwQgICtEYI1rQECBAgQIAAAQIECBAgQIAAAQIECBAgQIAAAQIECBAgQIAAAQIECBAQoOU1QIAAAQIECBAgQIAAAQIECBAgQIAAAQIECBAgQIAAAQIECBAgQIAAgRESEKA1QrCmJUCAAAECBAgQIECAAAECBAgQIECAAAECBAgQIECAAAECBAgQIECAgAAtrwECBAgQIECAAAECBAgQIECAAAECBAgQIECAAAECBAgQIECAAAECBAiMkECu1vPedNNNg07Z3t5eaO/u7o577rmnUC7NNDY2xkEHHVSo7urqij/84Q+FcmmmqakpDjzwwEL1xo0b449//GOhXJoZM2ZMvOpVrypUr1+/Pu67775CuTQzduzYmD17dqF63bp1sWDBgkK5NDNu3Lg44IADCtVr1qyJhQsXFsqlmQkTJsT+++9fqF69enUsWrSoUC7NtLS0xCte8YpC9apVq+LBBx8slEszra2tse+++xaqV65cGX/6058K5dLMpEmTYu+99y5Uv7hiRfx58eJCuTQzZcqUmDVrVqH6hRdeiCVLlhTKpZltttkmZs6cWah+7rnn4pFHHimUSzPbbbdd7LnnnoXq5cuXx6OPPlool2amTp0a06dPL1Q/88wz8fjjjxfKpZkddtghdt9990L10qVL44knniiUSzM77bRTTJs2rVD99NNPx5NPPlkol2Z22WWXSI++lPqmMeXSrrvuGjvvvHOh+S9/+UssW7asUC7N7LbbbrHjjjsWqtO9pnsul9K9pnvuS8kymZZLyTKZ9qWHH344nn/++b5iv58zZsyIbbfdtlCfXgvpNVEupddCek30pT//+c/x4osv9hX7/dxrr71i8uTJhfqHHnooOjo6CuXSzD777BNtbW2F6vRnJf2ZKZfSn5X0Z6YvPfDAA/HSSy/1Ffv93G+//WLixImF+vvvvz/Wrl1bKJdmXvnKV8b48eML1envkvR3SrmU/i5Jf6f0pXvvvTc2bNjQV+z3c86cOdHc3Fyonz9/fnR2dhbKpZm5c+dGLvfyW0L6uzb9nVsupb9r09+5fenuu++Onp6evmK/nwcffHA0NDT01qd+qf9gaVPeK9J9pvstl9J9pvvtS8kxeZZLm/pekV4H6fVQLqXXQXo99KWRfq9If07Sn5dyKf05SX9e+lKl7xUr8u8Viyt4r0h/j6S/T8ql9PdI+vukL1X6XvHss8/GY4891je838/tt98+9thjj0J9+ns2/X1bLqW/Z9Pft32p0veKp556KtKjXCp9r0jvQ+ka5VJ6H0rvR32p0veKZJOMyqVkk4z6UnqfTs9BuZTep9P7dV+q9L0ivXbSa6hcSp8z0ueNvpQ+x6TXaLmUPsekzzN9qdL3ivQ5LH0eK5fS57D0eawvpc956c9wuZQ+56XPe32p0veK9Dk1fV4tl9Ln1PR5tS+N9HtF+hyfPs+XS+lzfPo835dq+V6R3lPSe0tfqvT3hFq/V6T33PTe25cq/T2h0veK9JkkfTYpl9JnkvTZpC9V+ntCpe8V6TNb+uxWLqXPbOmzW1+q9PeESt8rRvr3hErfK4b6PSF95k+f/fvSUO8Vpb8nVPpeUenvCSP9XlHp7wlDvVfslX+vmLwJ7xWV/p6waNED+feK8r8nbOp7RaW/J1T6XpG+M0nfnZRL6TuT9Hm4L1X6e0Kl7xV33XVX36UG/LkpvydU+l7hO6XsU7Cp3ylV+ntCpe8Vlf6eMNR7RenvCb5Tyr4efKfkO6XiV4TvlHyn1Pd68J2S75T6Xgvpp++UtuzvlIb6PWFT//9DrX9PqOT/P/hOyXdKxX9Xlf7/h6F+T9jU//fsO6Vi/U1/r6j1d0qb+v8fKv9OaWTfK3ynlH29zZs3L1uxmUov/x+TzbQAlyVAgAABAgQIECBAgAABAgQIECBAgAABAgQIbIpA3z8O3JQ5ajm23tZTy3szFwECBAgQIECAAAEClQsI0KrczAgCBAgQIECAAAECBAgQIDAiAoPtSjoiFxxi0npbzxDLjfy2rUN2qW2Hv/f1art6sxHYagUG2QF6qzVx4wQIECBAgAABAgQIECBAgMCICgjQGlFekxMgQIAAAQIECBDYPAL1FlRRb+vZPM+KqxIgQIAAAQIECBAgQIAAAQIECBAgQIAAAQJbo0BD/n+U9NTyxm+66abMdO3t7ZmyAgECBAgQIECAAAECBAgQIECAAAECBAgQIECAAAECBAgQIECAAAECBGotcNddd2WmnDdvXqa8uQp20Npc8q5LgAABAgQIECBAgAABAgQIECBAgAABAgQIECBAgAABAgQIECBAgMCoFxCgNeqfYjdIgAABAgQIECBAgAABAgQIECBAgAABAgQIECBAgAABAgQIECBAgMDmEhCgtbnkXZcAAQIECBAgQIAAAQIECBAgQIAAAQIECBAgQIAAAQIECBAgQIAAgVEv0NCTT7W8y46OjlpOZy4CBAgQIECAAAECBAgQIECAAAECBAgQIECAAAECBAgQIECAAAECBAhULNDW1lbxmJEYYAetkVA1JwECBAgQIECAAAECBAgQIECAAAECBAgQIECAAAECBAgQIECAAAECBPICArS8DAgQIECAAAECBAgQIECAAAECBAgQIECAAAECBAgQIECAAAECBAgQIDBCArlaz9vZ2ZmZMper+SUy8ysQIECAAAECBAgQIECAAAECBAgQIECAAAECBAgQIECAAAECBAgQIECgNG6pXkRqHj01f/78zL21t7dnygoECBAgQIAAAQIECBAgQIAAAQIECBAgQIAAAQIECBAgQIAAAQIECBCotUBp3NK8efNqfYmq5nPEYVVsBhEgQIAAAQIECBAgQIAAAQIECBAgQIAAAQIECBAgQIAAAQIECBAgQGBoAQFaQxvpQYAAAQIECBAgQIAAAQIECBAgQIAAAQIECBAgQIAAAQIECBAgQIAAgaoEBGhVxWYQAQIECBAgQIAAAQIECBAgQIAAAQIECBAgQIAAAQIECBAgQIAAAQIEhhYQoDW0kR4ECBAgQIAAAQIECBAgQIAAAQIECBAgQIAAAQIECBAgQIAAAQIECBCoSkCAVlVsBhEgQIAAAQIECBAgQIAAAQIECBAgQIAAAQIECBAgQIAAAQIECBAgQGBoAQFaQxvpQYAAAQIECBAgQIAAAQIECBAgQIAAAQIECBAgQIAAAQIECBAgQIAAgaoEclWNGmRQLlfzKQe5miYCBAgQIECAAAECBAgQIECAAAECBAgQIECAAAECBAgQIECAAAECBAhE1GvcUkNPPtXyCero6KjldOYiQIAAAQIECBAgQIAAAQIECBAgQIAAAQIECBAgQIAAAQIECBAgQIBAxQJtbW0VjxmJAY44HAlVcxIgQIAAAQIECBAgQIAAAQIECBAgQIAAAQIECBAgQIAAAQIECBAgQCAvIEDLy4AAAQIECBAgQIAAAQIECBAgQIAAAQIECBAgQIAAAQIECBAgQIAAAQIjJJCr9bzr1q3LTDlu3LhMWYEAAQIECBAgQIAAAQIECBAgQIAAAQIECBAgQIAAAQIECBAgQIAAAQK1FiiNW6qXIw5rHqC1YMGCjF17e3umrECAAAECBAgQIECAAAECBAgQIECAAAECBAgQIECAAAECBAgQIECAAIFaC5TGLc2bN6/Wl6hqPkccVsVmEAECBAgQIECAAAECBAgQIECAAAECBAgQIECAAAECBAgQIECAAAECBIYWEKA1tJEeBAgQIECAAAECBAgQIECAAAECBAgQIECAAAECBAgQIECAAAECBAgQqEpAgFZVbAYRIECAAAECBAgQIECAAAECBAgQIECAAAECBAgQIECAAAECBAgQIEBgaAEBWkMb6UGAAAECBAgQIECAAAECBAgQIECAAAECBAgQIECAAAECBAgQIECAAIGqBARoVcVmEAECBAgQIECAAAECBAgQIECAAAECBAgQIECAAAECBAgQIECAAAECBIYWEKA1tJEeBAgQIECAAAECBAgQIECAAAECBAgQIECAAAECBAgQIECAAAECBAgQqEogV9WoQQaNGzdukFZNBAgQIECAAAECBAgQIECAAAECBAgQIECAAAECBAgQIECAAAECBAgQqL1AvcYtNfTkUy1vt6Ojo5bTmYsAAQIECBAgQIAAAQIECBAgsFULLFiwIC677LJ+Bg0NDXHhhRdGc3Nzv7bhVtx5551xxRVX9Os+ceLEOP/88/vVb20Vjz/+eHzjG98o3HZra2t85jOfKZRlCBAgQIAAAQIECBAgQIAAAQIE6lugra2tLhYoQKsungaLIECAAAECBAgQIECAAAECBAgMLHD55ZfHWWedNWBjCq465phjBmwbTuV73/ve+OlPfzpg15UrVw5YvzVV3nrrrXHcccdlbplLhkOBAAECBAgQIECAAAECBAgQIFDXAvUSoNVY10oWR4AAAQIECBAgQIAAAQIECBAgUFbgZz/7Wdm2oRrWrFlTNjhrqLHaCRAgQIAAAQIECBAgQIAAAQIECBAYvkDNA7RWr14dxY/hL0VPAgQIECBAgAABAgQIECBAgACBSgR++MMfxtq1aysZUuh70003FfIyBAgQIECAAAECBAgQIECAAAECBEaDQHHMUsrXS8rVeiGLFi3KTNne3p4pKxAgQIAAAQIECBAgQIAAAQIECNRO4JZbbok3v/nNFU941VVXVTxmaxvQ1NSUueWWlpZMWYEAAQIECBAgQIAAAQIECBAgQKC+BErjlnbeeee6WGDNA7Tq4q4sggABAgQIECBAgAABAgQIECCwlQikYw4rDdBK/3pwU45H3Epo4zWveU08/fTThdttbKz5ZvSFuWUIECBAgAABAgQIECBAgAABAgRGr4BvlUbvc+vOCBAgQIAAAQIECBAgQIAAga1A4PLLL6/4mEPHGw7vhdHQ0BATJ04sPMaPHz+8gXoRIECAAAECBAgQIECAAAECBAgQKBIQoFWEIUuAAAECBAgQIECAAAECBAgQqHeBdMxe6VF7lQZcXXnllZnbnDlzZqasQIAAAQIECBAgQIAAAQIECBAgQIBA7QQccVg7SzMRIECAAAECBAgQIECAAAECBEZcIO3i9I53vCMuueSSwrVSwNVxxx1XKA+W6ejoiF/84heZLieeeGJ84QtfyNQNp/Dcc8/Fj370o5g/f3488sgj8fDDD0c6PjEFfE2bNq338cY3vjHe8IY3RHNz86BTprE333xzoc9BBx0Uc+bM6S3/8Y9/jO985zu913nsscfine98Z3z9618v9C3OrFu3Lu6///7evnfeeWc8++yzMWHChJg+fXocdthhvcdB5nK56O7u7u3T09PTO3y77bbr7VM818qVK+PWW28tVKXdtF7/+tcXyn2ZG264IZ544om+Ypx00knR2toaae7f//73cfXVVxfWvnbt2thjjz1i9913733Ojj322N6+hcEyBAgQIECAAAECBAgQIECAAAECo05AgNaoe0rdEAECBAgQIECAAAECBAgQIDCaBVKAz/HHH58J0PrZz34W3/jGN/rtrDWQw4033pip3meffWLffffN1A1VeOGFF+KCCy6I733vewN2XbJkSaRHSpdeemnvus4999w4++yzIx0bOFC67bbb4uMf/3ih6ZxzzokDDjigN3Dsy1/+cqE+ZZ555plMua/w0EMPxamnnlq4dl9938//+q//6g2O+upXvxozZsyIo48+uq+pN3/VVVcVyilz3333xWmnnZapS0Fbpemiiy6KO+64o1B96KGHRltbW3zkIx/JBJ31dVi4cGGkxzXXXBNTp06NH/7wh3HIIYf0NftJgAABAgQIECBAgAABAgQIECAwygQccTjKnlC3Q4AAAQIECBAgQIAAAQIECIxugbRDVQoASoE9xelXv/pVcbFsvvR4w7TbU9pNargpBYidcsopZYOzBponrfmzn/1snH/++QM1D1iXdp/653/+5ygNzhqwc74y7VKVgpz6AsPK9Us7cL397W+Pa6+9tlyXTa6/995749WvfvWAwVmlky9fvrx3h7G0A5lEgAABAgQIECBAgAABAgQIECAwOgVqHqCVtm8vfoxONndFgAABAgQIECBAgAABAgQIENh8Ak1NTZGOJSxOpbs/Fbf15V988cXeXZv6yulnOhpxw4YNxVWD5j/wgQ9kdovq67zzzjvHMccc07u7VwogGyhdfPHFccUVVwzU1K/uK1/5Snz729/uVz9QxY9//OM4/fTTB2oqW/eJT3yibNumNnzoQx/qPeqxknlGcj2VrENfAgQIECBAgAABAgQIECBAgMCWLFAcs5Ty9ZJqfsRhpVvi1wuEdRAgQIAAAQIECBAgQIAAAQIEtiSBd7zjHfHNb36zsORf/vKXkY7fmzRpUqGuNHPDDTdkqvbff/+YNWtWzJ8/P1NfrrB06dJIxykWp5kzZ8Z3v/vd3uMIi+tTMNj3v//9+MxnPlNcHb/5zW/ihBNOyNQNpzB37tyYM2dOTJ8+PdI1+9JLL70U//qv/9pXLPx8z3veE2eddVbstdde0dnZGQ888ECk3cO+9a1vFfr8PTJnnHFGvP/97+9dcwqsSzt8/eAHP4gUrFac0tGTK1asiClTphRXyxMgQIAAAQIECBAgQIAAAQIECFQgUK9xSzUP0KrARFcCBAgQIECAAAECBAgQIECAAIEqBQ488MDeYw7TEXl96frrr490ZGG5VBpc9e53v7tc1wHrFyxYkKlPxyz+7//+b7S0tGTqU2Hy5Mlx9tlnRzoS8Ytf/GKh/fbbby/kh5NJc1922WXx+te/fsDuKeCq2CB1SjtvnXzyyYX+Y8aMiYMOOqj38ZrXvCZOO+20QttIZlKA2vHHH5+5RAqIu+CCC3pdSncI++1vf9u7o1lmgAIBAgQIECBAgAABAgQIECBAgMAWL1DzIw63eBE3QIAAAQIECBAgQIAAAQIECBDYAgQaGxvj1FNPzay0NACruDHtznTdddcVV8Xb3va2THmowr333pvpknaoGig4q7jTm9/85uJiPPbYY9Hd3Z2pG6zw+9//vmxw1jPPPBMXXnhhZviZZ56ZCc7KNOYL6UjH888/v7S65uWPfvSj/YKzii+S2kvTsmXLSquUCRAgQIAAAQIECBAgQIAAAQIERoFAzQO00pd9xY9RYOQWCBAgQIAAAQIECBAgQIAAAQJ1KVC6O1MKwErfywyU0u5axWn27Nmx5557FlcNmU87Zh1zzDGFx+te97ohx6Rj/apNKZBqt912Kzv8lltu6dd27rnn9qsrrXjve987ZGBZ6ZhKyilobaAArOI5dt55535reOGFF4q7yBMgQIAAAQIECBAgQIAAAQIECFQoUByzVO57sgqnrEn3mh9xuHjx4szC2tvbM2UFAgQIECBAgAABAgQIECBAgACB2gjMmTMn9thjj95dqfpmvPbaa/vtrJXarrzyyr4uvT9PPPHETHk4hTPOOCPSY7hp48aNvccNDrd/ab+0G9ZgKe3GVZzmzp0bO+20U3HVgPnW1tZIQVoXX3zxgO2bWplsp0yZMuQ0Bx98cNx8882FfitXrizkZQgQIECAAAECBAgQIECAAAECBCoXKI1b2n333SufZARG1DxAawTWaEoCBAgQIECAAAECBAgQIECAAIEBBBoaGiIFA33pS18qtKZArNKjD59//vm48cYbC31SJh31V6uUjhp88sknex9/+ctfIj0ef/zxuP3222P16tVVXSbtMNXW1jbo2EceeSTTftRRR2XKgxVmzJgxWPMmtQ137tIvCLu6ujbpugYTIECAAAECBAgQIECAAAECBAjUp4AArfp8XqyKAAECBAgQIECAAAECBAgQIDAsgXTMYXGA1q9//etYvnx5pOMI+1I6+rA4pZ2mSoODituHynd2dsbPf/7z3t2f0tGJ6Xq1TnvvvfeQU/75z3/O9Em7iQ03pQCwkUpDBZaN1HXNS4AAAQIECBAgQIAAAQIECBAgUJ8CjfW5LKsiQIAAAQIECBAgQIAAAQIECBAYjsB+++0XM2fOzHQtDci66qqrMu0nn3xyplxJ4Z577okjjzyy96jDyy67bESCs9J6crmh/11haYDWpEmThn0r6ZjDkUpjx44dqanNS4AAAQIECBAgQIAAAQIECBAgsAUKCNDaAp80SyZAgAABAgQIECBAgAABAgQIFAucdNJJxcX46U9/Wiin3a3SrlrF6dhjjy0uDjt/5513xtFHHx0LFy4cdExLS0tvv/POOy8uv/zyQftuSmPp8YljxowZ9nTDCQAb9mQ6EiBAgAABAgQIECBAgAABAgQIEBhEYOh/ijjIYE0ECBAgQIAAAQIECBAgQIAAAQKbX+Btb3tb/Nu//VthIbfeemssW7YsdtxxxyjdTevQQw+NXXbZpdB3uJmOjo54z3ve0697CsY67bTT4uCDD4599tkndt1115g8eXKh3+LFiwv5WmfStYuDtJ599tlhX+K5554bdl8dCRAgQIAAAQIECBAgQIAAAQIECGyKgACtTdEzlgABAgQIECBAgAABAgQIECBQBwIpMCo9HnroocJqrrnmmjjzzDMzu2mlxhNOOKHQp5LML37xi3j66aczQ173utfFj370o5gwYUKmvriwatWq4mJN8ykAbcmSJYU5n3jiiUJ+qMx99903VBftBAgQIECAAAECBAgQIECAAAECBGoiUPMjDqdMmRLFj5qs0iQECBAgQIAAAQIECBAgQIAAAQKDCpxyyimZ9p/85Ce9u2il3bSKU7XHGy5atKh4mpg6dWr8+Mc/HjQ4Kw343e9+lxlXy8KMGTMy05WuMdNYUvj5z39eUqNIgAABAgQIECBAgAABAgQIECCwpQsUxyylfL2kmgdozZo1K4of9XKj1kGAAAECBAgQIECAAAECBAgQGM0C6ZjD4nTHHXfEf/7nfxZXxeGHHx477bRTpm64hfvvvz/Tdc6cOTF+/PhM3UCFW265ZaDqmtQdcsghmXnScY7DOVLx7rvvjoULF2bGKhAgQIAAAQIECBAgQIAAAQIECGz5AsUxSylfL6nmAVr1cmPWQYAAAQIECBAgQIAAAQIECBDYmgT23HPPmD17duaWL7744kz5Xe96V6ZcSaGpqSnTvbm5OVMeqJCCs2688caBmmpSd9hhh/Wb56tf/Wq/uuKKdevWxUc/+tHiKnkCBAgQIECAAAECBAgQIECAAAECIyogQGtEeU1OgAABAgQIECBAgAABAgQIEPj7CZx44omDXuwtb3nLoO2DNZYGf11zzTXx0EMPlR1y6aWXxtvf/vYB27u7uwesr7Qy7aBVuq7LLrss/uVf/iU6Ozv7TbdixYo44YQT7J7VT0YFAQIECBAgQIAAAQIECBAgQIDASArUPEBr+fLlUfwYycWbmwABAgQIECBAgAABAgQIECBA4GWB0mMOX26JOOKII2KHHXYorqooXxoIlQYfe+yxceWVV8batWt75+ro6Ijrr78+TjvttPjwhz9cdv7UZ/Xq1VGLQK3Pf/7z/a7zzW9+M4455pj48pe/HNdee21cddVVvUFbe+yxR9x22239+qsgQIAAAQIECBAgQIAAAQIECBAYHQLFMUspXy8pV+uFPProo5kpp06dmikrECBAgAABAgQIECBAgAABAgQIjIzAbrvtFgcffHDcfffd/S7w7ne/u19dJRXHHXdczJ07N+bPn18Ylr7kOuOMMwrlgTLpu6HSL8NOPfXU3q5f+9rX4vTTTx9o2LDrjjzyyPjCF77QG4BVPCits3itxW3yBAgQIECAAAECBAgQIECAAAECo1OgNG5pxowZdXGjNd9Bqy7uyiIIECBAgAABAgQIECBAgAABAlupwEknnTTgnW/K8YZpwjFjxsQll1wy4NzlKvfff/+47rrr4pOf/OSAXTZu3DhgfaWVH/rQh3p3yko7ZA0nHX300ZF22SpOzc3NxUV5AgQIECBAgAABAgQIECBAgAABAjUTEKBVM0oTESBAgAABAgQIECBAgAABAgRqLzB27NiKJn3rW9/ar38KSNpuu+361fdVlF6jpaWlrynzc9asWbFgwYLe4wMzDSWFtGtWOnrwlltuiTTmfe97Xwx0RGLxsNI1VBow9drXvjbuuOOOOO+883p3+iqeuy+fdhf7xje+EVdccUU0NTX1Vff+HGgX+NI1lXMZP358Zq5x48ZlyuUKpfMPd1y5+dQTIECAAAECBAgQIECAAAECBAjUp0BDTz7Vcmk33XRTZrr29vZMWYEAAQIECBAgQIAAAQIECBAgQGDLF7j99ttj4cKFsWjRonjmmWdihx12iF122SXSd0GHHXZY5HK5zE2uXbs27rnnnnjooYd6g6NS31e/+tXR1taW6VerQmdnZyxZsiRWrlwZ22yzTWy//fYxadKkwvQpUOtTn/pUofyxj30szj///EJZhgABAgQIECBAgAABAgQIECBAYMsTuOuuuzKLnjdvXqa8uQrZb8o21ypclwABAgQIECBAgAABAgQIECBAYIsSSDtWpcdwU9pl6vDDD+99DHfMpvRLAWL77LNP2SnuvvvuTNtgO4xlOioQIECAAAECBAgQIECAAAECBAgQqFBAgFaFYLoTIECAAAECBAgQIECAAAECBAjUh8DixYvj3HPPzSzmu9/9bkyZMiVTV1rYsGFDlO4CP3fu3NJuygQIECBAgAABAgQIECBAgAABAgRqIiBAqyaMJiFAgAABAgQIECBAgAABAgQIEPh7C6QjC2+++ebMZb/zne/Exz/+8UxdcaG7uzv+6Z/+KVavXl2obmlp6T2asVAhQ4AAAQIECBAgQIAAAQIECBAgQKCGAjUP0Jo6dWoNl2cqAgQIECBAgAABAgQIECBAgAABAgMLbL/99jF79uy47777Ch0uuuiieNOb3hT77bdfoa448+lPfzouv/zy4qo4+eSTIx2JKBEgQIAAAQIECBAgQIAAAQIECGzZAvUat9TQk0+1pO3o6KjldOYiQIAAAQIECBAgQIAAAQIECBAgUFbgK1/5Spx//vn92k899dQ46KCDIgVxPf7443H33XfHb3/721i+fHmmb9o9a/78+bHDDjtk6hUIECBAgAABAgQIECBAgAABAgS2fIG2tra6uAkBWnXxNFgEAQIECBAgQIAAAQIECBAgQIBANQKdnZ1x5plnxtVXX13N8Ljyyitj3rx5VY01iAABAgQIECBAgAABAgQIECBAoL4F6iVAq7G+mayOAAECBAgQIECAAAECBAgQIECAQHmBdDTht7/97Tj++OPLdxqgZeedd45f//rXgrMGsFFFgAABAgQIECBAgAABAgQIECBQW4Ga76D1pz/9KbPCnXbaKVNWIECAAAECBAgQIECAAAECBAgQIDASAg8++GBccskl8ZOf/CRWr1494CWOOOKIOOmkk+Ltb397tLa2DthHJQECBAgQIECAAAECBAgQIECAwJYpsHTp0szC995770x5cxVqHqB10003Ze6lvb09U1YgQIAAAQIECBAgQIAAAQIECBAgMNICq1atiqeeeiqee+65mDhxYkydOjW22267GDdu3Ehf2vwECBAgQIAAAQIECBAgQIAAAQKbSeCuu+7KXHnevHmZ8uYq5DbXhV2XAAECBAgQIECAAAECBAgQIECAwEgJpN2x9tlnn5Ga3rwECBAgQIAAAQIECBAgQIAAAQIEhi3QOOyeOhIgQIAAAQIECBAgQIAAAQIECBAgQIAAAQIECBAgQIAAAQIECBAgQIBARQICtCri0pkAAQIECBAgQIAAAQIECBAgQIAAAQIECBAgQIAAAQIECBAgQIAAAQLDFxCgNXwrPQkQIECAAAECBAgQIECAAAECBAgQIECAAAECBAgQIECAAAECBAgQIFCRgACtirh0JkCAAAECBAgQIECAAAECBAgQIECAAAECBAgQIECAAAECBAgQIECAwPAFBGgN30pPAgQIECBAgAABAgQIECBAgAABAgQIECBAgAABAgQIECBAgAABAgQIVCSQq6j3MDrvtNNOw+ilCwECBAgQIECAAAECBAgQIECAAAECBAgQIECAAAECBAgQIECAAAECBGonUK9xSw09+VS724zo6Oio5XTmIkCAAAECBAgQIECAAAECBAgQIECAAAECBAgQIECAAAECBAgQIECAQMUCbW1tFY8ZiQGOOBwJVXMSIECAAAECBAgQIECAAAECBAgQIECAAAECBAgQIECAAAECBAgQIEAgLyBAy8uAAAECBAgQIECAAAECBAgQIECAAAECBAgQIECAAAECBAgQIECAAAECIySQq/W8TzzxRGbKadOmZcoKBAgQIECAAAECBAgQIECAAAECBAgQIECAAAECBAgQIECAAAECBAgQqLVAadzSfvvtV+tLVDVfzQO0li5dmlmIAK0MhwIBAgQIECBAgAABAgQIECBAgAABAgQIECBAgAABAgQIECBAgAABAiMgUBq3VC8BWo44HIEn25QECBAgQIAAAQIECBAgQIAAAQIECBAgQIAAAQIECBAgQIAAAQIECBBIAgK0vA4IECBAgAABAgQIECBAgAABAgQIECBAgAABAgQIECBAgAABAgQIECAwQgICtEYI1rQECBAgQIAAAQIECBAgQIAAAQIECBAgQIAAAQIECBAgQIAAAQIECBAQoOU1QIAAAQIECBAgQIAAAQIECBAgQIAAAQIECBAgQIAAAQIECBAgQIAAgRESEKA1QrCmJUCAAAECBAgQIECAAAECBAgQIECAAAECBAgQIECAAAECBAgQIECAgAAtrwECBAgQIECAAAECBAgQIECAAAECBAgQIECAAAECBAgQIECAAAECBAiMkECu1vNOmzat1lOajwABAgQIECBAgAABAgQIECBAgAABAgQIECBAgAABAgQIECBAgAABAoMK1GvcUkNPPg268gobOzo6KhyhOwECBAgQIECAAAECBAgQIECAAAECBAgQIECAAAECBAgQIECAAAECBGor0NbWVtsJq5zNEYdVwhlGgAABAgQIECBAgAABAgQIECBAgAABAgQIECBAgAABAgQIECBAgACBoQRqfsThUBfUPjICO17/6ZGZ2KwECBAgQIAAAQIECBAgQIAAAQIECBAgQIAAAQIECBAgQIAAAQKbJLDsTRdu0niDt2yBmgdoPfrooxmR6dOnZ8oKBAgQIECAAAECBAgQIECAAAECBAgQIECAAAECBAgQIECAAAECBAgQqLVAadzS7Nmza32JquareYDW8uXLMwsRoJXhUCBAgAABAgQIECBAgAABAgQIECBAgAABAgQIECBAgAABAgQIECBAYAQESuOWRuASVU3ZWNUogwgQIECAAAECBAgQIECAAAECBAgQIECAAAECBAgQIECAAAECBAgQIEBgSAEBWkMS6UCAAAECBAgQIECAAAECBAgQIECAAAECBAgQIECAAAECBAgQIECAAIHqBARoVedmFAECBAgQIECAAAECBAgQIECAAAECBAgQIECAAAECBAgQIECAAAECBIYUEKA1JJEOBAgQIECAAAECBAgQIECAAAECBAgQIECAAAECBAgQIECAAAECBAgQqE5AgFZ1bkYRIECAAAECBAgQIECAAAECBAgQIECAAAECBAgQIECAAAECBAgQIEBgSAEBWkMS6UCAAAECBAgQIECAAAECBAgQIECAAAECBAgQIECAAAECBAgQIECAAIHqBHLVDSs/avr06eUbtRAgQIAAAQIECBAgQIAAAQIECBAgQIAAAQIECBAgQIAAAQIECBAgQGAEBOo1bqnmAVpTp04dAT5TEiBAgAABAgQIECBAgAABAgQIECBAgAABAgQIECBAgAABAgQIECBAoLxAvcYtOeKw/HOmhQABAgQIECBAgAABAgQIECBAgAABAgQIECBAgAABAgQIECBAgAABApskIEBrk/gMJkCAAAECBAgQIECAAAECBAgQIECAAAECBAgQIECAAAECBAgQIECAQHmBmh9xuHjx4szVZs2alSkrECBAgAABAgQIECBAgAABAgQIECBAgAABAgQIECBAgAABAgQIECBAoNYCpXFLBx54YK0vUdV8NQ/QWrFiRVULMYgAAQIECBAgQIAAAQIECBAgQIAAAQIECBAgQIAAAQIECBAgQIAAAQLVCtRr3JIjDqt9Ro0jQIAAAQIECBAgQIAAAQIECBAgQIAAAQIECBAgQIAAAQIECBAgQIDAEAICtIYA0kyAAAECBAgQIECAAAECBAgQIECAAAECBAgQIECAAAECBAgQIECAAIFqBQRoVStnHAECBAgQIECAAAECBAgQIECAAAECBAgQIECAAAECBAgQIECAAAECBIYQEKA1BJBmAgQIECBAgAABAgQIECBAgAABAgQIECBAgAABAgQIECBAgAABAgQIVCsgQKtaOeMIECBAgAABAgQIECBAgAABAgQIECBAgAABAgQIECBAgAABAgQIECAwhIAArSGANBMgQIAAAQIECBAgQIAAAQIECBAgQIAAAQIECBAgQIAAAQIECBAgQKBagVy1A8uN22uvvco1qSdAgAABAgQIECBAgAABAgQIECBAgAABAgQIECBAgAABAgQIECBAgMCICNRr3FLNA7QmT548IoAmJUCAAAECBAgQIECAAAECBAgQIECAAAECBAgQIECAAAECBAgQIECAQDmBeo1bcsRhuWdMPQECBAgQIECAAAECBAgQIECAAAECBAgQIECAAAECBAgQIECAAAECBDZRQIDWJgIaToAAAQIECBAgQIAAAQIECBAgQIAAAQIECBAgQIAAAQIECBAgQIAAgXICNT/icNGiRZlrveIVr8iUFQgQIECAAAECBAgQIECAAAECBAgQIECAAAECBAgQIECAAAECBAgQIFBrgdK4pUMPPbTWl6hqvpoHaK1evbqqhRhEgAABAgQIECBAgAABAgQIECBAgAABAgQIECBAgAABAgQIECBAgACBagXqNW7JEYfVPqPGESBAgAABAgQIECBAgAABAgQIECBAgAABAgQIECBAgAABAgQIECBAYAgBAVpDAGkmQIAAAQIECBAgQIAAAQIECBAgQIAAAQIECBAgQIAAAQIECBAgQIBAtQI1P+Kw2oUYR4AAAQIECBAgQIAAAQIECBAgMLBA42PLI25eNHDjILU9k8ZH0y7bRuOu20TXjpOiq2nr/Ld6TZf8Jno61vZKNTQ2RucH50XDuDGDyGkiQIAAAQIECBAgQIAAAQIECBAgUDsBAVq1szQTAQIECBAgQIAAAQIECBAgQGBEBHJPvhArr1+wyXNP2G/XiA/Mi56prZs815Y0wdrfLY6utRsKS5545lHRLUCr4CFDgAABAgQIECBAgAABAgQIECAwsgJb5z+bHFlTsxMgQIAAAQIECBAgQIAAAQIE6lJgzQNPxvpzfxRjFzxRl+uzKAIECBAgQIAAAQIECBAgQIAAAQKjUUCA1mh8Vt0TAQIECBAgQIAAAQIECBAgQKCMQNpJ6sV/uzpyv3mgTA/VBAgQIECAAAECBAgQIECAAAECBAjUUqDmRxy+4hWvqOX6zEWAAAECBAgQIECAAAECBAgQIDCAQOs5b47GlnEDtET0bOiKhnwgVvfzHdG18KlYc+/j/fqtufS3Me6QmdE9cWy/NhUECBAgQIAAAQIECBAgQIAAAQIEtkSBeo1bqnmAVktLy5b4/FgzAQIECBAgQIAAAQIECBAgQGCLEti4367RUCZAK3Mjxx0YrXc+HKsuujZTnXbSarplUXS/9VWZegUCBAgQIECAAAECBAgQIECAAAECW6pAvcYtOeJwS31FWTcBAgQIECBAgAABAgQIECBAYJgCnYfMiMmfPK5f7+5Hnu1Xp4IAAQIECBAgQIAAAQIECBAgQIAAgdoKCNCqrafZCBAgQIAAAQIECBAgQIAAAQJ1KbB+/137ravr6RX96oZT0bixM5o2dg2nqz4ECBAgQIAAAQIECBAgQIAAAQIEtnqBmh9xuGDBggzqAQcckCkrECBAgAABAgQIECBAgAABAgQIbAaB5lyM2327WPf4c4WL93T1REOhVD7TsGJ15O5YEhvzRyVueOy5SMcjptTcNiFyM3eIhj22izF77xzr5+zWWz/Yf3rWbYym2x4qdBkzpSXWHzS9tzzmxTXRc+0fo+tPS2P9489HU9v4aPraPxb6FmeaurpjzINPx8Y/PBrdz6yMWN8Z0dkZjdu1RtO0baL7iH2ic5vW4iEV5dP8uQeeys//SPQ8tjw6l6+KyDVF47gx0bR9W+Rm7xY9h8yKjW3jhpw3t+zF6L7/iUK/przZxunb95bH5ncx67rx/tj48LOx8dmOmPDqmdH5/qMLfWUIECBAgAABAgQIECBAgAABAgSGL1Aat3TYYYcNf/AI9qx5gNa6detGcLmmJkCAAAECBAgQIECAAAECBAgQqEqgu6c3AKh4bG7nyTHYPlgpSKnpmj/Gyh/+rnhYIb+hY01smP9oRHrk04T2PSPOODJ68kFX5dKY51bFqv+5pdA8LgV45QO0mvMBYKv/69eF4K/UIQWCjS/0fDmTe/iZWP/1X8XqpS++XFnILf1r7sd3xMQ3HRANp1X+JVxu4ROx4Xu3xeonni/MmsmkILe7H4nI30frm2dH90mHRvf45kyX4kLjA09m7rn1+IOic4+pMe6nd8SLV95T3DW6XlybKSsQIECAAAECBAgQIECAAAECBAgMX6Be45ZqHqA1fBI9CRAgQIAAAQIECBAgQIAAAQIE/l4CTU8+nwl+Stft3m3bspdPRxh2fzMfBPX7JWX7lDasueuRaLr/yWh571Gx4bC9S5vLllNw1sqvXFe2vbghd+eSWHXR8Pq+dP2CmPDsqn73XTxfaT6X38Fr1fd/W1pdtrzquvui+a6HY/x5b4sN08p7lk4wPh8A1nH9faXVygQIECBAgAABAgQIECBAgAABAqNQoHEU3pNbIkCAAAECBAgQIECAAAECBAgQKBLIvbAqNgwQ1DTmtYMEUX3/tlhTJjgrHZU4Yf9pRVd4OZt2vVqZ391qzKPLX64cJLduyTPDDs4au3jZsIOz+i655m+7e/WVB/uZu2lh2eCspvwOWelIx4HShudXx9rPXR3JeThp1dX3CM4aDpQ+BAgQIECAAAECBAgQIECAAIFRImAHrVHyRLoNAgQIECBAgAABAgQIECBAgECxQK4nX1qxKprufSLWXHFnpCCi4tRyQnts2GFScVUh35w/2m/ljfcXyn2ZSWe/KTpftXvvcX5p+pb8EYiNT74Q3b/4Q6z+7Z/7uvX+3HjJr6PpwhOjq6myfx/YnF/TmL12jMZp20Tkg6I6i2bd8IP+O1uloKmxZxwRMWvHiG1be++5cdHTsTp//GAKFhtuGtOxLl76we39uqcjDLuOmxs92/712MYJK1ZH88PLY82lt8WGZ1YW+qfjHsfmj1WMDx1TqBtuJh3zmJu+fcSObZHbcUqsH+5A/QgQIECAAAECBAgQIECAAAECBLYIAQFaW8TTZJEECBAgQIAAAQIECBAgQIAAgaxA98d+mA9gGpOt7Cut3Rhr8wFD5VLr8QdFzzsPLtccG3/0+35tkz91fKw/ILtrVgq+6srvptX0wWNiwobOSEcc9qW1jyyPtl8tiK43z+mrGvJnyz+8Nta/9VXR3dAQ3SW9mx98OlY+tDRTO2GfnSL3sbfExslFO1ttkw/Syh+vOGGfXaLz//6/SOsYTuq68s5+AV2TP3lcrJ+7R2Z4z5SWWH9QS4zdMx9Qdf6VmSCtVbc+FBPfc0R0TxybGVOukHblmpjWP3tadP2tU9/PcmPUEyBAgAABAgQIECBAgAABAgQIbHkClf0Txi3v/qyYAAECBAgQIECAAAECBAgQIDAqBdKOTWkHpwEfgwRntbx6Zmx8d3vZna1yC/M7bpUcC9j6/tf3C84qRk2BWg0feWOMz+98VZw6vndbdPakvbaGTq3nvCW6jp0buXxw1kBpY/5YwOKUgpsaPnFsNjirqEPndi2R+/Abi2rKZ3P5XcBeun5BpkPLiYf0C84q7tC5zcTIXfDO4qrefOOdS/rVlasY++X/0xucVa5dPQECBAgQIECAAAECBAgQIECAwOgQEKA1Op5Hd0GAAAECBAgQIECAAAECBAgQGJbA6t8vie4PfC/G3PfEwP1vzx5VmDptfM1eA/ctqu0ek4vmAXbLGpc/EnCoNGHO7tF5yIyy3VIA1Zp7H8+0j31bfqetieMydaWFzp2nROsR+5RW9ys3/GZRpq45f5xhz9vmZuoGKqTdtCa+4ZWZpo2/fiBTLldo/T+vjp6p+d2+JAIECBAgQIAAAQIECBAgQIAAgVEvUPMjDg844IBRj+YGCRAgQIAAAQIECBAgQIAAAQKbWyDtINWUD4oql9IOW+VS7+5bX7g6Wj44L7qO3DfTrevpFZly25tmx8ZxZY5SzPSM6HzV7iU1EY1LV0akYwcHSbl0jUHaG/MBWqUp94YDBh1T6P+m/HdV+aMHB0udT2Xnb547PboGsS2ea8yBe0b86v5C1bolz0TLxq78+KZC3UCZhmOygV0D9VFHgAABAgQIECBAgAABAgQIECBQmUC9xi2V/xavsvsr9B43bvB/uVjoKEOAAAECBAgQIECAAAECBAgQIFC1wJhvnB4NLeW/hxmfn7kpHyjUtOzF6MkfW/jS5XdG19oNmeut/tZNMWH/adGT3zGqL61//Pm+7F9/HrBbtjxIqTsfNNa80+TYsPTFQq/u/DGMsd+uhfJAmc5dtxmoulDX/czL86XK5h0mxcZB7r0wMJ9pyPcdKnU+sjzTpTt/LOOYR5/N1JUrdK3PmqZ+DSteiti+rdyQSDt0bZwwtmy7BgIECBAgQIAAAQIECBAgQIAAgeoE6jVuqeYBWtXxGEWAAAECBAgQIECAAAECBAgQIFBrgbSLU9e0bSPyjwkHz4iNX7ku0g5Pxanx+7dF1zlv7q1qfGl9vyCurm0nFncfMp/bpiUToBUlO3INNMHG7Vpi0C+pluWDvIpSLh8E1lNUHiw7VCBX0/qNsbZkt7E1Ny2MSI8qU/ea9YOOHLPLNtE9aA+NBAgQIECAAAECBAgQIECAAAECo0mgcTTdjHshQIAAAQIECBAgQIAAAQIECBAYWKBzu9ZoOv+d0dw2IdNh9Z1LItcX7bS8I9PWW5jy8u5a/RsHqCk5DrFn1boBOmWrcg0N2YqSUmfRjlypqXFy9h5Kuvcrpl29yqa0w1eNU2N+57LBUk+Tr+QG89FGgAABAgQIECBAgAABAgQIEBhtAoP+48Rqbnb+/PmZYXPnzs2UFQgQIECAAAECBAgQIECAAAECBDaPQPeYXIw9aI/Y8JtF2QWsWBWxTWvk1m7M1qdSrrJgou6VazJzNEytMMArM/pvhfwuV8WpJ38EYUVpQ2fZ7g3ry7eVHaSBAAECBAgQIECAAAECBAgQIECgLgVK45aOOuqoulhnzQO0Ojt9qVUXz6xFECBAgAABAgQIECBAgAABAgQGEGjcb9eIkgCt3NMrozMfoNU9tbXfiNyLa2LDxLH96stVdD+bD/YqSj1TJxWVqss27JCf45HlhcE9qwY/QrDQMZ9p6uqOtc+vLq7K5BumtmXKqdDyD6+Nptm796sfbkXXzlOG21U/AgQIECBAgAABAgQIECBAgACBGgrUa9xSzQO0amhmKgIECBAgQIAAAQIECBAgQIAAgVoLNPbfEauz8a9HDPZMmdjvaj3P5YObdhlewNGYNetjbUd2B62m/NGKgx/41++S/Sqads4eUdi5dEU09es1cEXDyrUDN/yttmdS/+MSG8Y1x4Zp2w46TiMBAgQIECBAgAABAgQIECBAgACB4Qr0/0ZuuCP1I0CAAAECBAgQIECAAAECBAgQ2OIEepY802/NDX/b8amrqTGadyoJhnp4ab/+5Soa5j/Wr6l7gB2q+nUaoqJnh+yaNix9MXIvvDTEqL825xYvG7RfZz42bdzMHbJ9nnwhWx6kNKZjXTT/bnHhMfbevwzSWxMBAgQIECBAgAABAgQIECBAgMDWKCBAa2t81t0zAQIECBAgQIAAAQIECBAgsFUKjMkfV9hxzR8z9940vjk2Tn55F6nctG0y7et/ke+/oTNTV66w8bd/zjSluXu2bcnUVVNoKAnQSnN03fLAsKZa+4s/DNmvqWSHsDW3PBiNazcMOS516P7JHbHyq9cXHusv/92wxulEgAABAgQIECBAgAABAgQIECCw9QgI0Np6nmt3SoAAAQIECBAgQIAAAQIECGzFAo2PLY91n7min8CEN+yfqWs6cM9MuSsfqNR8ezbwKtPhb4Uxjy6PNX98LNM08d3tkXbl2tTUM31qNLe9HESW5kuBY0MFUeUWPRXrBtgxrHQ9ja/aI1OV7rnpN0MHgOWeXhGrb7w/MzZ3+N6ZsgIBAgQIECBAgAABAgQIECBAgACBTf+GjCEBAgQIECBAgAABAgQIECBAgEDdCTR1dUdu2coY84fHInfFXfHSJ/+/2PDMysw6e3fPetuBmbqefIDR2GnbZupW/tevI3fnw5m64kLu6RfjpQuuKq6KNPeGo7PBX5kOFRS6xuZi/OmHZUakIKruz10VPR1rMvV9hdzDz8SaL/2/vuLgPw+dFeP33TnTp+PS3/baZSqLCumeN158fVHN37KHzuxaw88mAABAAElEQVRfp4YAAQIECBAgQIAAAQIECBAgQGCrFsht1Xfv5gkQIECAAAECBAgQIECAAAECW6jAujP/e5NX3nL64bGhZVxmnrTj1dh/ODzWf+HqTP2qi66NlhPao+mA3WL97ttFbkxTNP7l+ejJB0Ktv/zOSAFTxWnCuw6KznFjiqs2Kb/mtXvF+PzxjGsfWV6YJ+WbP31FjH3nwdGz59To2nFyNC17MRoffCo6vnNrod9Qmc6GiKYzjow498eZrh1f+mW0Hn9QNM7dIzp32za68zaN+V2zmtL837st0zcVWk97TXRu09qvXgUBAgQIECBAgAABAgQIECBAgMDWLVDzAK25c+du3aLungABAgQIECBAgAABAgQIECCwBQi0nnlkbHjdKwZc6cbZ02LiwXvGS3c/kmlfnd+JK9JjiDQuH8DVPe+VQ/SqrDnX0BDN7zky1pYc05h2BdvwnzdVNtkAvbt22y5a335grPr5HzKtq66+JyI9hkgT8sckrjt2btT8y7YhrquZAAECBAgQIECAAAECBAgQIEDgZYF6jVuq+RGHuVwuih8vE8gRIECAAAECBAgQIECAAAECBAhsboFxM3eI1gtOiM43HDDoUho+9uZoze+CVWnqPR7x02+P7vwRh7VOG/beKVq/cGI0t00Y9tSTTn1NtBwyzGMHT3lNtL7vdcOeu6/jhH12itw/HRMpiEwiQIAAAQIECBAgQIAAAQIECBDYfALFMUspXy+pflZSLyLWQYAAAQIECBAgQIAAAQIECBCoN4FcU1UrasoHSTW1jY/cdvlj9/bfJZpeuVusywdoNQwjkCgddRgnvjom7btrrP3ar2JDx5oh1zDplENjw1teFdE8yFdOVd5L38U7Z+wQjf/3lJhw8Q2x5oEn+6r7/UxBXBM+cHSszx9P2PT1GzLtTU0N0Z2p+WshHXUY8/bP3/MuseEbN2SOUxyge6Rgt7FvfVV0HTIjNiavMqlnTNajIdcYPWX6qiZAgAABAgQIECBAgAABAgQIEBh9Ag09+VTL2+ro6KjldOYapsCO1396mD11I0CAAAECBAgQIECAAAECBAhUKLChM8Y8tSK6//JcND7+fHQ+/lzvBI2Tx0fDtq3RkA9o6n7FLtE1NhuIVOFVKuremf9Ka9zSldH4yDPR+ael0fP0i9HYOjYa8sFoDftNi+4DpkVvkFlFs77cuamrO5qWrYzI32v3Y8ujK91zPgiraduWiO1aonGffBBXfkcviQABAgQIECBAgAABAgQIECAwHIFlb7pwON30qbFAW1tbjWesbrqaB2jddNNNmZW0t7dnygojIyBAa2RczUqAAAECBAgQIECAAAECBAgQIECAAAECBAgQIECAAAECBAgQ2FQBAVqbKji88XfddVem47x58zLlzVUov/f65lqR6xIgQIAAAQIECBAgQIAAAQIECBAgQIAAAQIECBAgQIAAAQIECBAgQGCUCAjQGiVPpNsgQIAAAQIECBAgQIAAAQIECBAgQIAAAQIECBAgQIAAAQIECBAgQKD+BARo1d9zYkUECBAgQIAAAQIECBAgQIAAAQIECBAgQIAAAQIECBAgQIAAAQIECIwSAQFao+SJdBsECBAgQIAAAQIECBAgQIAAAQIECBAgQIAAAQIECBAgQIAAAQIECNSfgACt+ntOrIgAAQIECBAgQIAAAQIECBAgQIAAAQIECBAgQIAAAQIECBAgQIAAgVEiIEBrlDyRboMAAQIECBAgQIAAAQIECBAgQIAAAQIECBAgQIAAAQIECBAgQIAAgfoTEKBVf8+JFREgQIAAAQIECBAgQIAAAQIECBAgQIAAAQIECBAgQIAAAQIECBAgMEoEcrW+j/b29lpPaT4CBAgQIECAAAECBAgQIECAAAECBAgQIECAAAECBAgQIECAAAECBAgMKlCvcUt20Br0adNIgAABAgQIECBAgAABAgQIECBAgAABAgQIECBAgAABAgQIECBAgACB6gUEaFVvZyQBAgQIECBAgAABAgQIECBAgAABAgQIECBAgAABAgQIECBAgAABAgQGFaj5EYednZ2ZC+ZyNb9EZn4FAgQIECBAgAABAgQIECBAgAABAgQIECBAgAABAgQIECBAgAABAgQIlMYt1YtIzaOn5s+fn7m3ej3bMbNIBQIECBAgQIAAAQIECBAgQIAAAQIECBAgQIAAAQIECBAgQIAAAQIEtmiB0rilefPm1cX9OOKwLp4GiyBAgAABAgQIECBAgAABAgQIECBAgAABAgQIECBAgAABAgQIECBAYDQKCNAajc+qeyJAgAABAgQIECBAgAABAgQIECBAgAABAgQIECBAgAABAgQIECBAoC4EBGjVxdNgEQQIECBAgAABAgQIECBAgAABAgQIECBAgAABAgQIECBAgAABAgQIjEYBAVqj8Vl1TwQIECBAgAABAgQIECBAgAABAgQIECBAgAABAgQIECBAgAABAgQI1IWAAK26eBosggABAgQIECBAgAABAgQIECBAgAABAgQIECBAgAABAgQIECBAgACB0SggQGs0PqvuiQABAgQIECBAgAABAgQIECBAgAABAgQIECBAgAABAgQIECBAgACBuhDI1XoVuVzNp6z1Es1HgAABAgQIECBAgAABAgQIECBAgAABAgQIECBAgAABAgQIECBAgMAoE6jXuKWaR1PNnTt3lD11bocAAQIECBAgQIAAAQIECBAgQIAAAQIECBAgQIAAAQIECBAgQIAAgXoXqNe4JUcc1vsrx/oIECBAgAABAgQIECBAgAABAgQIECBAgAABAgQIECBAgAABAgQIENhiBQRobbFPnYUTIECAAAECBAgQIECAAAECBAgQIECAAAECBAgQIECAAAECBAgQIFDvAjU/4nDdunWZex43blymrECAAAECBAgQIECAAAECBAgQIECAAAECBAgQIECAAAECBAgQIECAAIFaC5TGLbW1tdX6ElXNV/MArQULFmQW0t7enikrECBAgAABAgQIECBAgAABAgQIECBAgAABAgQIECBAgAABAgQIECBAoNYCpXFL8+bNq/UlqprPEYdVsRlEgAABAgQIECBAgAABAgQIECBAgAABAgQIECBAgAABAgQIECBAgACBoQUEaA1tpAcBAgQIECBAgAABAgQIECBAgAABAgQIECBAgAABAgQIECBAgAABAgSqEhCgVRWbQQQIECBAgAABAgQIECBAgAABAgQIECBAgAABAgQIECBAgAABAgQIEBhaQIDW0EZ6ECBAgAABAgQIECBAgAABAgQIECBAgAABAgQIECBAgAABAgQIECBAoCqBXFWjDCKwlQose9OFW+mdu20CBAgQIECAAAECBAgQIECAAAECBAgQIECAAAECBAgQGI0CO17/6dF4W+6JQF0J2EGrrp4OiyFAgAABAgQIECBAgAABAgQIECBAgAABAgQIECBAgAABAgQIECBAYDQJ1HwHrfHjx0f09PzVqKFhNFm5FwIECBAgQIAAAQIECBAgQIAAAQIECBAgQIAAAQIECBAgQIAAAQIE6lSgXuOWah6g9cpXvrJOnwLLIkCAAAECBAgQIECAAAECBAgQIECAAAECBAgQIECAAAECBAgQIEBgtArUa9ySIw5H6yvOfREgQIAAAQIECBAgQIAAAQIECBAgQIAAAQIECBAgQIAAAQIECBAgsNkFBGht9qfAAggQIECAAAECBAgQIECAAAECBAgQIECAAAECBAgQIECAAAECBAgQGK0CNT/icNWqVRmr1tbWTFmBAAECBAgQIECAAAECBAgQIECAAAECBAgQIECAAAECBAgQIECAAAECtRYojVtqa2ur9SWqmq/mAVoPPvhgZiHt7e2ZsgIBAgQIECBAgAABAgQIECBAgAABAgQIECBAgAABAgQIECBAgAABAgRqLVAat7TLLrvU+hJVzeeIw6rYDCJAgAABAgQIECBAgAABAgQIECBAgAABAgQIECBAgAABAgQIECBAgMDQAgK0hjbSgwABAgQIECBAgAABAgQIECBAgAABAgQIECBAgAABAgQIECBAgAABAlUJCNCqis0gAgQIECBAgAABAgQIECBAgAABAgQIECBAgAABAgQIECBAgAABAgQIDC0gQGtoIz0IECBAgAABAgQIECBAgAABAgQIECBAgAABAgQIECBAgAABAgQIECBQlYAArarYDCJAgAABAgQIECBAgAABAgQIECBAgAABAgQIECBAgAABAgQIECBAgMDQAgK0hjbSgwABAgQIECBAgAABAgQIECBAgAABAgQIECBAgAABAgQIECBAgAABAlUJ5KoaNcig1tbWQVo1ESBAgAABAgQIECBAgAABAgQIECBAgAABAgQIECBAgAABAgQIECBAoPYC9Rq3VPMArX333bf2emYkQIAAAQIECBAgQIAAAQIECBAgQIAAAQIECBAgQIAAAQIECBAgQIDAIAL1GrfkiMNBnjRNBAgQIECAAAECBAgQIECAAAECBAgQIECAAAECBAgQIECAAAECBAgQ2BQBAVqbomcsAQIECBAgQIAAAQIECBAgQIAAAQIECBAgQIAAAQIECBAgQIAAAQIEBhGo+RGHK1asyFxuypQpmbICAQIECBAgQIAAAQIECBAgQIAAAQIECBAgQIAAAQIECBAgQIAAAQIEai1QGrfU1tZW60tUNV/NA7QWL16cWUh7e3umrECAAAECBAgQIECAAAECBAgQIECAAAECBAgQIECAAAECBAgQIECAAIFaC5TGLe2+++61vkRV8znisCo2gwgQIECAAAECBAgQIECAAAECBAgQIECAAAECBAgQIECAAAECBAgQIDC0gACtoY30IECAAAECBAgQIECAAAECBAgQIECAAAECBAgQIECAAAECBAgQIECAQFUCArSqYjOIAAECBAgQIECAAAECBAgQIECAAAECBAgQIECAAAECBAgQIECAAAECQwsI0BraSA8CBAgQIECAAAECBAgQIECAAAECBAgQIECAAAECBAgQIECAAAECBAhUJSBAqyo2gwgQIECAAAECBAgQIECAAAECBAgQIECAAAECBAgQIECAAAECBAgQIDC0gACtoY30IECAAAECBAgQIECAAAECBAgQIECAAAECBAgQIECAAAECBAgQIECAQFUCuapGDTJoypQpg7RqIkCAAAECBAgQIECAAAECBAgQIECAAAECBAgQIECAAAECBAgQIECAQO0F6jVuqeYBWrNmzaq9nhkJECBAgAABAgQIECBAgAABAgQIECBAgAABAgQIECBAgAABAgQIECAwiEC9xi054nCQJ00TAQIECBAgQIAAAQIECBAgQIAAAQIECBAgQIAAAQIECBAgQIAAAQIENkWg5jtobcpijCVAgAABAgQIECBAgAABAgQIEPirwJe+9KVYvnx5xRytra2x1157xYwZM2LmzJlRr9u6D3Vjzz77bJxzzjnR3d3d2zXdy+c+97mhhg27/b//+7/j5ptvLvT/xCc+EXPmzCmUU+Z//ud/4k9/+lOh7sQTT4yDDz64UJYhQIAAAQIECBAgQIAAAQIECBAgMByBmgdolX5xOHXq1OGsQx8CBAgQIECAAAECBAgQIECAAIEigUsuuaSqAK2iKXqzZ511VnzqU5+KyZMnlzbVdXnFihXxy1/+srDGWgdo3XnnnXHNNdcU5j/llFP6BWj99Kc/jTvuuKPQJwW+CdAqcMgQIECAAAECBAgQIECAAAECBOpOoDRuqa2trS7WWPMjDh999NEoftTFXVoEAQIECBAgQIAAAQIECBAgQGArFUiBXvvtt19cffXVW6mA2yZAgAABAgQIECBAgAABAgQIENhaBIpjllK+XlLNA7Tq5casgwABAgQIECBAgAABAgQIECBA4K8Cq1evjtNPPz0WLlyIhAABAgQIECBAgAABAgQIECBAgACBv7NAzY84/Duv3+UIECBAgAABAgQIECBAgAABAluFwOzZs+Pss88ue68bN26MdCzgU089Fdddd10sWbKkX9/3v//98Zvf/CbGjh3br01Ff4Hm5uZM5ZgxYzJlBQIECBAgQIAAAQIECBAgQIAAAQLDERCgNRwlfQgQIECAAAECBAgQIECAAAECm1kgHVP4rne9a1iruPDCC+Nb3/pWnHfeeZn+aQetH/zgB3HmmWdm6hUGFrjiiiuis7Oz0Dhu3LhCXoYAAQIECBAgQIAAAQIECBAgQIDAcAUccThcKf0IECBAgAABAgQIECBAgAABAluQwAc/+MH42te+1m/Ff/jDH/rVqRhYIO00NnHixMKjqalp4I5qCRAgQIAAAQIECBAgQIAAAQIECAwiIEBrEBxNBAgQIECAAAECBAgQIECAAIEtWeDUU0/tt/y0i5ZEgAABAgQIECBAgAABAgQIECBAgMDfT8ARh38/a1ciQIAAAQIECBAgQIAAAQIECPxdBXK5XLzuda+Lm2++uXDd++67r/fYvtRWLj333HPxox/9KObPnx+PPPJIPPzww7F69eqYOXNmTJs2rffxxje+Md7whjdEc3NzuWkGrH/ppZfihhtu6F3TU089FRs2bIiGhobYfffdo729Pd75zndGS0vLgGOHU/nAAw/EL3/5y3jwwQdj2bJlveubNGlSzJgxI97xjnfEnDlzhjNNb5+77767d46+AXPnzo1ddtmlr9j7c/ny5fHzn/+8UDdr1qw48sgje8vJMa3luuuui8cffzyefPLJaGtri9122y0OOeSQ3nutZD1p0mSWdkFLj/vvvz/Wrl3bO1+67sknnxy77rpr77Wffvrp3r69hfx/DjjggEg7gkkECBAgQIAAAQIECBAgQIAAAQJ/f4Hy38RVuZapU6dWOdIwAgQIECBAgAABAgQIECBAgACBWguk4KTStG7dugGDoF544YW44IIL4nvf+17pkN7ykiVLIj1SuvTSS3vnOPfcc+Pss8/uDbLqbRjkP5dffnmcc845vcFeA3W77LLL4sMf/nB8/etf7w1gGqhPubqlS5f2riMFf5VLF198cRxxxBFxySWXlOuSqf/0pz8dd9xxR6HuP/7jP+J973tfoZwyKRDs4x//eKHuuOOOi8MPPzzSvXzkIx8p1PdlUqBbCp5K8371q1+Ns846Kz7/+c/HuHHj+roM+LOrqyu+/OUvxxe/+MV+7b/73e9669I8//iP/xhf+tKX4t///d8zz+OvfvWrik37XUgFAQIECBAgQIAAAQIECBAgQKDOBeo1bqnmAVrTp0+v86fC8ggQIECAAAECBAgQIECAAAECW4/As88+m7nZ9CXVQDtUpZ2YTjnllExAUmbgAIUUbPTZz342VqxY0RvYNUCXQtV5550X3/rWtwrlwTIpSCvtdjXctHjx4jjqqKPKBn4Vz3PrrbfG61//+n47YRX32ZR8d3d3b6BYCmAbTkrBYin46qKLLirbPfmmwLAbb7yxbJ++hnTdJ554IiZPntxX5ScBAgQIECBAgAABAgQIECBAYKsRqNe4pZoHaG01z6gb/f/Zuxd4qap6ceALPArIQzEPCYqAgg9QUMyjmCja0TR73ix7mWmf6pZ2s7pdy9IeZtq11y0tHzd7ml67+eil5Vt8hYqCiiLIQ1BUQuQA8RDl75r7n2n2nplz5nBmhmHmuz6f8zl7rb32enz3cM7M2T/WIkCAAAECBAgQIECAAAECBAjUucDKlSvDzJkzE6OMW90VS5/85CeLBmcNGzYsjBs3LvTv3z+z3V/+ilLZduLKVPvuu284/vjjs0WJ75dccknZwVnZC6+99trsYaffY/DS29/+9rKCs7INxRWs4lc10p/+9KduN/vTn/40fOADHwhveMMbCq6Nq53F4LMFCxYUnCtVkL+lZak6ygkQIECAAAECBAgQIECAAAECBGon0Lt2XemJAAECBAgQIECAAAECBAgQIECgVgJxJadPfepTBYFLMZAqneL2gOmAqNGjR4epU6dmtvD73//93/CLX/wixO0DFy5cGL7xjW+kmwi33nprQVkseOmll8J//Md/FJw7+OCDw/XXXx/mz58f4taK06ZNC2effXZBva4KLr744qLBVueee2649957w7JlyzJjjn1NmDChq+Yqen7kyJHhsssuy/S/YsWKsHjx4sycY9BbOv3hD39IF2Xyl19+eUFwVmw3zjsGbUXfRx99NLPlZLF2izaqkAABAgQIECBAgAABAgQIECBAoKYCFV9BK/5BLz8NHTo0P+uYAAECBAgQIECAAAECBAgQIECgygJ33XVX+OEPf5gJqEp3dfLJJ6eLClbZitsg3nHHHUW3Qoxb533mM58JcUvE8847L9fW3XffnTvOP/jv//7v/Gzm+OMf/3iIAVTbbLNN7tyee+4Z4tdBBx0UTjjhhILAslzFvIOOjo5w4YUX5pWEEMf+P//zP+GAAw7Ilccxx1WoYoDZ6aefHq666qrcuWodHHLIIZl+tttuu1wXAwcOzIzj97//feZ73CIym/74xz8WbBMZg6+iU36aOHFiuOaaa8LgwYNzxcOHDw/x6/DDDw/RNs5TIkCAAAECBAgQIECAAAECBAg0o0A6bmnQoEF1wVDxAK1FixYlJiZAK8EhQ4AAAQIECBAgQIAAAQIECBDYJIGbbropfOITnyh5bdwK7+mnnw5PPvlkyeCmL3zhCyGuvpRODz/8cKIoBvkMGDAgUZbOHHvssYkArbiaU1y1q3fvfy7YHgOQvv/97ycunTx5crjgggsSZfmZQw89NJx//vnhtNNOyy8uehxXl8oPcoqVfv7znyeCs/Iv7NevX/jRj34U7rzzzqKrbuXX7elxXHEsPzgrv70xY8ZkgtDi1obZNHfu3Oxh7nu0Kza//OCsXOXXDmIgWgyI23vvvQuuy6/nmAABAgQIECBAgAABAgQIECDQqALpuKX4HwLrIVU8QKseJmUMBAgQIECAAAECBAgQIECAAIFGE1i6dGmPVn6KWxbG1aOKpbjq1FFHHZU7dcQRR+SOSx1stdVWpU7lyuPWiOkAozPOOCN3vtRBXEHrW9/6VqdBVDEYLB3oFVetigFenaW4ateZZ55ZVgBYZ+10di62P2TIkM6qhGJbTa5bty706dMnd93VV1+dO44HMUBvxIgRibJ0Jv6v0BiI99WvfjV9Sp4AAQIECBAgQIAAAQIECBAgQGAzCfzzvzRupgHolgABAgQIECBAgAABAgQIECBAoLoCp5xySpg6dWrJVbHi+RhMlf068MADOx3Qyy+/HC655JJO68STjzzySKJO3J4vrqDVVYpBVKeeemqn1Z5//vmC4K/Pfe5znV6TPRkDwKqZTjzxxC6bHzt2bEGdlStX5sriimjPPvtsLh8Pjj766ES+VKbYNpal6ionQIAAAQIECBAgQIAAAQIECBCovoAVtKpvrAcCBAgQIECAAAECBAgQIECAQM0F4laGcZWmGCz05je/eZP6j0FQixcvznzF7RPj18KFC8Pdd99dEBxVrIOnnnoqURwDtMpNu+++e6dV41jSaZ999kkXFc3HALBY99FHHy16vqeFQ4cO7bKJYcOGFdSJq4Jl0zPPPJM9zH0/6KCDcsedHcStFeMWlenVyzq7xjkCBAgQIECAAAECBAgQIECAAIHqCQjQqp6tlgkQIECAAAECBAgQIECAAAECFROI2/edffbZXbYXt7jbbbfdQr9+/bqsm66wYcOGcP3114fbbrst3HjjjSFuq9iTNHv27MTlw4cPT+Q7y+y8886dnQ4LFiwoON/VtoL5F8StAqsRoBUDo3r16pXfVdHjrurEQLj8FNsdOHBgflGnx3vssUeYPn16p3WcJECAAAECBAgQIECAAAECBAgQqI2AAK3aOOuFAAECBAgQIECAAAECBAgQINAjgbgi1qRJk3rURmcXP/DAA+Ezn/lMxYKW1q1bV7BFX2tra2dDSJzrKtgqHaAV295qq60SbXSW6SoArLNrOzsXA+QqkdIBWjvttFO3mo0BXRIBAgQIECBAgAABAgQIECBAgEB9CAjQqo/7YBQECBAgQIAAAQIECBAgQIAAgc0m8Le//S0cffTRXfYfg37iNnttbW1hv/32CyeccELJa9asWVPyXDknYoBXZ+kf//hHZ6e7PLd27dou62zOCun5tbR07894m7KC2uacr74JECBAgAABAgQIECBAgAABAo0s0L2/7JQhMXTo0DJqqUKAAAECBAgQIECAAAECBAgQIFAPAh0dHeEjH/lIwVBiMNaHPvShcOCBB4a99tor7LLLLmH77bfP1ZszZ07uuNhBrBvbWLVqVe70iy++mDvu6mDJkiWdVtl1110T5+N2jK+++mro3bt3orxUZtGiRaVO1UV5ejvDxYsXd2tczz33XLfqq0yAAAECBAgQIECAAAECBAgQaASBeo1bqniA1vDhwxvhfpkDAQIECBAgQIAAAQIECBAgQKApBH7/+98XbEV4xBFHhN/85jdh2223LWmwcuXKkueyJ/bee+9w//33Z7OhO0FGzz77bO66YgejRo0qKP773/8eutoaMXvR/Pnzs4d1+X277bZLjCsGuq1evTr0798/UV4sE1ffmjFjRrFTyggQIECAAAECBAgQIECAAAECDS1Qr3FL5f2Xwoa+NSZHgAABAgQIECBAgAABAgQIEGhegVmzZiUm39raGq688spOg7PiBffcc0/iumKZPfbYI1F88803h40bNybKSmXitoudpZEjRxacvvfeewvKihXE1bkWLFhQ7FTdlBX7Y+KTTz5Z1vjuuOOOsuqpRIAAAQIECBAgQIAAAQIECBAgUBsBAVq1cdYLAQIECBAgQIAAAQIECBAgQKAuBR555JHEuPbbb7/Qr1+/RFmxzO23316sOFE2evToRH7u3LnhrrvuSpQVyyxbtixcfPHFxU7lyooFMHV1Tfbiyy67LHtYt9/HjRtXMLZy5/fTn/604FoFBAgQIECAAAECBAgQIECAAAECm0+g4gFaixYtCvlfm29qeiZAgAABAgQIECBAgAABAgQIEOhKYKuttkpU2WabbRL5YpkYnHXTTTcVO5Uoe/Ob35zIx8xFF13U5Spa5QQYbb311uGd73xnov24qteDDz6YKEtnVqxYES655JJ0cd3l+/TpE970pjclxnXVVVeFefPmJcrSmeuuu66se5O+Tp4AAQIECBAgQIAAAQIECBAg0AgC+TFL8bheUsUDtOIS8flf9TJR4yBAgAABAgQIECBAgAABAgQIECgUmDBhQqLwT3/6U3jiiScSZfmZX/7yl+Ed73hHflHu+NVXX80dx4O4CtRHPvKRRNkNN9wQ/u3f/i1s2LAhUZ7N/OpXvwrnnntuNtvp96997WsF59/+9reH6dOnF5THgqVLl2aCulatWlX0fL0VfuITnygY0tFHHx1mzpxZUB4LrrnmmnDSSScVPaeQAAECBAgQIECAAAECBAgQINAMAvkxS/G4XlLFA7TqZWLGQYAAAQIECBAgQIAAAQIECBAg0LVAOkArXvHWt741/O53vwtr1qzJNNDR0RFuvPHG8KEPfSh8+tOfLtlorBODn/IDtb74xS8W1I9BXu973/vC9ddfH+bPn5/p57777gtf+tKXwmmnnVZQv1TBqFGjwumnn544Hfs/4ogjwo9+9KMQ21y9enV4+umnM/Npb28vGbyVaKROMnG8kydPTowmBpnFss9+9rPh17/+dfjLX/4S4opjcc4nn3xyoq4MAQIECBAgQIAAAQIECBAgQIBAfQi01McwjIIAAQIECBAgQIAAAQIECBAgQGBzCLztbW8LEydOTAQuxSCgU045pdPhtLa2Zlakyq/0wQ9+MJP94Q9/mFvJaejQoZkVsb785S/nV81sw9fZNokDBgzIBHslLiqSiYFKV1xxRcFYvvKVrxSpvWUVxe0nf/azn4UYqLVgwYLE4C+//PIQvyQCBAgQIECAAAECBAgQIECAAIH6F7CCVv3fIyMkQIAAAQIECBAgQIAAAQIECFRNYOuttw6XXnppt9rfZ599Qtyq8Iwzzih63csvv5woj6ti/fjHP06UdZW56qqruqqSOb/99tuHu+++OxxyyCFl1Y+Vjj322HDeeeeVXX9zVoyBcPfcc0849dRTyx5GXFlr9OjRifrbbLNNIi9DgAABAgQIECBAgAABAgQIECBQOwEBWrWz1hMBAgQIECBAgAABAgQIECBAoGyB/v37J+pWM8BmzJgxYebMmeGoo45K9JnOxGChc845J9x+++0hXvOxj30sFNsiMX1dzMfVte64444wbNiwYqdzZXE1rwceeCCzjV9cRSub0h7Z8vj99a9/ffj9739fVhDT17/+9cyKW/ltxzaK+fbr1y+eyqU+ffrkjrMH6bJtt902e6rT7y0thQvbx2C5YinO/Vvf+lb461//GuKKZ/E+pFOcT1z17KGHHsrUWbFiRaLKDjvskMjLECBAgAABAgQIECBAgAABAgQI1E6g18bXUiW7u/nmmxPNtbW1JfIy1RHY6cYtf9n+6shUttXnjvlmZRvUGgECBAgQIECAAAECBAgQqDOBuBrVo48+GmbNmhWef/75TPDTzjvvHOLfeA499NCQDixas2ZNJqDqiSeeCHFLvlh30qRJYdCgQUVntn79+vDYY4+FBx98MNx3332ZPmLQ1siRIzMrW+23335Fryu3cMmSJZntGu+///7w8MMPhxgwFccUA7/e8pa3hO22267cpuq63rJly8K8efNCDBDbcccdw5AhQ3L3ZsOGDeF1r3tdYvyLFy8OAwcOTJTJECBAgAABAgQIECBAgACBKCDeoDavA/EGtXGeNm1aoqP29vZEfnNlBGhtLvkK9+sHZoVBSzTnB2YJGMUECBAgQIAAAQIECBAgQIBA3QjE1dAmT56cGE96Ra3ESRkCBAgQIECAAAECBAgQaGoB8Qa1uf3iDWrjXK8BWoVrqffQY/jw4T1sweUECBAgQIAAAQIECBAgQIAAAQIECJx77rkhrgSWTccdd1xmW8lsvtT3uDJZfjrssMPys44JECBAgAABAgQIECBAgAABAg0rUK9xSxUP0Bo6dGjD3kQTI0CAAAECBAgQIECAAAECBAgQIFArgVWrVoXbbrst110M1nrf+97X6VaFcVvHL3zhC7lr4sE73/nORF6GAAECBAgQIECAAAECBAgQINCoAvUat9S7UcHNiwABAgQIECBAgAABAgQIECBAgMCWLDBlypTE8GPA1re+9a2wbt26RHk289RTT4W4ylY6HXvssekieQIECBAgQIAAAQIECBAgQIAAgRoKVHwFrRqOXVcECBAgQIAAAQIECBAgQIAAAQIEGlbgjW98YxgwYECIgVnZ9OMf/zj8+c9/DieddFIYMWJE2LhxY4irZsVtDfO3Q8zWP/PMM8OwYcOyWd8JECBAgAABAgQIECBAgAABAgQ2g0DFA7Tmz5+fmMaoUaMSeRkCBAgQIECAAAECBAgQIECAAAECBLoWiMFZ11xzTTj66KMTlRcsWBC+/vWvJ8qKZQ455JDw+c9/vtgpZQQIECBAgAABAgQIECBAgACBhhRIxy1NmDChLuZZ8S0Oly5dGvK/6mKWBkGAAAECBAgQIECAAAECBAgQIEBgCxQ46KCDwrXXXptZSas7wz/11FPDddddF1paKv7/M7szDHUJECBAgAABAgQIECBAgAABAjUVyI9Zisf1kvyFpl7uhHEQIECAAAECBAgQIECAAAECBAgQKCJw5JFHhrlz52ZW07rkkkvCjBkzitQKobW1NZxwwgnh+OOPD/vvv3/ROgoJECBAgAABAgQIECBAgAABAgRqLyBAq/bmeiRAgAABAgQIECBAgAABAgQIECDQLYF+/fqFD37wg5mvDRs2hBdeeCE888wzYf369WHHHXcMQ4YMCdtvv33o1atXt9pVmQABAgQIECBAgAABAgQIECBAoPoCArSqb6wHAgQIECBAgAABAgQIECBAgAABAhUTiNsWDhs2LPNVsUY1RIAAAQIECBAgQIAAAQIECBAgUDWB3lVrWcMECBAgQIAAAQIECBAgQIAAAQIECBAgQIAAAQIECBAgQIAAAQIECBBocgEBWk3+AjB9AgQIECBAgAABAgQIECBAgAABAgQIECBAgAABAgQIECBAgAABAgSqJyBAq3q2WiZAgAABAgQIECBAgAABAgQIECBAgAABAgQIECBAgAABAgQIECBAoMkFWio9/1GjRlW6Se0RIECAAAECBAgQIECAAAECBAgQIECAAAECBAgQIECAAAECBAgQIECgU4F6jVuqeIBWa2trpxBOEiBAgAABAgQIECBAgAABAgQIECBAgAABAgQIECBAgAABAgQIECBAoNIC9Rq3ZIvDSt9p7REgQIAAAQIECBAgQIAAAQIECBAgQIAAAQIECBAgQIAAAQIECBAgQOD/CwjQ8lIgQIAAAQIECBAgQIAAAQIECBAgQIAAAQIECBAgQIAAAQIECBAgQIBAlQQqvsXhnDlzEkMdM2ZMIi9DgAABAgQIECBAgAABAgQIECBAgAABAgQIECBAgAABAgQIECBAgACBSguk45YOOOCASnexSe1VPEBr+fLlmzQQFxEgQIAAAQIECBAgQIAAAQIECBAgQIAAAQIECBAgQIAAAQIECBAgQGBTBeo1bskWh5t6R11HgAABAgQIECBAgAABAgQIECBAgAABAgQIECBAgAABAgQIECBAgACBLgQEaHUB5DQBAgQIECBAgAABAgQIECBAgAABAgQIECBAgAABAgQIECBAgAABAgQ2VUCA1qbKuY4AAQIECBAgQIAAAQIECBAgQIAAAQIECBAgQIAAAQIECBAgQIAAAQJdCAjQ6gLIaQIECBAgQIAAAQIECBAgQIAAAQIECBAgQIAAAQIECBAgQIAAAQIECGyqgACtTZVzHQECBAgQIECAAAECBAgQIECAAAECBAgQIECAAAECBAgQIECAAAECBLoQEKDVBZDTBAgQIECAAAECBAgQIECAAAECBAgQIECAAAECBAgQIECAAAECBAgQ2FSBlk29sNR1Y8aMKXVKOQECBAgQIECAAAECBAgQIECAAAECBAgQIECAAAECBAgQIECAAAECBKoiUK9xSxUP0Bo8eHBVADVKgAABAgQIECBAgAABAgQIECBAgAABAgQIECBAgAABAgQIECBAgACBUgL1Grdki8NSd0w5AQIECBAgQIAAAQIECBAgQIAAAQIECBAgQIAAAQIECBAgQIAAAQIEeiggQKuHgC4nQIAAAQIECBAgQIAAAQIECBAgQIAAAQIECBAgQIAAAQIECBAgQIBAKYGKb3E4a9asXF+9Xjvae+zYXN4BAQIEyhGYNm1ap9Xa29tz5zdu3BhuueWWXD590KtXr/CmN70pV/zqq6+GW2+9NZdPH/Tu3TsceeSRueJXXnkl3Hbbbbl8+mCrrbYKRxxxRK54w4YN4fbbb8/l0wctLS1hypQpueKXX3453HHHHbl8+qC79bfeeutw+OGH55pZv359uPPOO3P59ME222wTDjvssFzxunXrwtSpU3P59EGfPn3C5MmTc8Vr164Nd911Vy6fPujbt2849NBDc8Vr1qwJd999dy6fPujXr1944xvfmCv+xz/+Ee65555cPn2w7bbbhkMOOSRXvHr16nDvvffm8umD/v37h0mTJuWKV61aFe67775cPn0wYMCAcPDBB+eKV65cGf72t7/l8umDgQMHhoMOOihX3NHRETp7PQ8aNCi0tbXl6q9YsSLcf//9uXz6oLv1t9tuu3DggQfmmnnppZfCAw88kMunD7bffvvwhje8IVe8fPny8OCDD+by6YO4POgBBxyQK37xxRfD9OnTc/n0wQ477BAmTpyYK162bFl46KGHcvn0wete97qw//7754r//ve/h4cffjiXTx/suOOOYb/99ssVL126NMyYMSOXTx+0traGCRMm5IpfeOGFMHPmzFw+fTBkyJAwfvz4XPHzzz8fHnnkkVw+ffD6178+7Lvvvrni5557Ljz66KO5fPpgp512Cvvss0+uuKv6Q4cODePGjcvVX7JkSXjsscdy+fRBuv6zzz4b8t+3pesPGzYsjM17H/fMM8+Exx9/PF0tl995553D3nvvncsvXrw4PPHEE7l8+mCXXXYJe+21V6540aJFYfbs2bl8+mD48OFhzz33zBU//fTT4cknn8zl0we77rpr2GOPPXLFCxcuDHPmzMnl0wcjRowI+XuSL1iwIMydOzddLZcfOXJkGD16dC4/f/788NRTT+Xy6YNRo0aF3XffPVc8f9688NRrX6XSbrvtFuJXNs17rW78KpV23323MGrUP+vHscQxlUpxLHFM2RTnGudcKsW5xjlnU7SMpqVStIym2RTvVbxnpVK8V/GeZVN8LcTXRKkUXwvxNZFN8bUWX3OlUnytxddcNsXXcnxNl0rxtRxf09kU/63EfzOlUvy3Ev/NZFP8txj/TZZK8d9u/DeZTV3Vjz8b4s+IbIo/S+LPiFIpXT/+rIo/s0ql+LMq/szKpvizMP5MLJXiz8L4MzGb4s/a+DO3VIo/a+PP3GyKP8vjz/RSKf4sjz/Tsyn+roi/M0ql+Lsi/s7Ipvi7KP5OKpXi76L4Oymb4u+6+DuvVIq/6/KXxI6/S+Pv1FIp/i6Nv1OzKf5uj7/jS6X4uzr+zs6m+N4hvocolbpbP77XiO8hsim+l4nvaUql+F4mvqfJpvheKb5nKpXie6X4nimb4nux+J6sVIrvxeJ7smyK7/Xie75SKb7Xi+/5sim+l4zvKUul+F4yvqfMpvheNb5nLZXie9X4njWb4nvh+J64VIrvheN74myK77Xje+5SKb7Xju+5sym+94+fAUql+F4+vqfPpvjZIn7GKJW6Wz9+FomfMbIpftaJn3lKpfhZJ37myab4WSp+piqV4mep+Jkqm+JntfiZrVSKn9XiZ7Zsuvnmm7OHRb8302fBrV+7T4e/dr+yqavPjj4LbtmfBTte+z0xzWfB7Ms983vdZ8HyPzv6LJh76WQO6v6zYBefHbv7WTBd32fB5OvBZ0GfBfNfEfX+WbDSnx19FvRZMP/1v6V/Fsx/jpI/L8cECBAoJZD//Cv+5emgvOe9pa6pRfk//ypXod46+8NthbrQDAECBAgQIECAAAECBAgQIECAAAECBBpCoHQY4/9NLz+QsSEmbBI9EvB66BHf5r+4k8DlTRncP8OcN+Vq1xAgQIAAAQIECBBoTIF6jVv6539rbEx3syJAgAABAgQIECBAgAABAgQIECCwRQl0FbCzRU3GYAkQIECAAAECBAgQIECAAAECBIIALS8CAgQIECBAgAABAjUWqPRD1wr/J+waa+iOAIHuCFg1ozta6hIgQIAAAQIECBAgQIAAAQIECBAgQKA+BHptfC1Vcig333xzojl7wiY4qpbZ6cavVK1tDf9T4LljvvnPjKOqCUybNi3Rdnt7eyIvQ4AAAQIECBAgQIAAAQIECBAgQIAAAQIECBAgQIBA4wmIN9g891S8QW3cxRvUxrle4w2soFWb+68XAgQIECBAgAABAgQIECBAgAABAgQIECBAgAABAgQIECBAgAABAgSaUECAVhPedFMmQIAAAQIECBAgQIAAAQIECBAgQIAAAQIECBAgQIAAAQIECBAgQKA2AgK0auOsFwIECBAgQIAAAQIECBAgQIAAAQIECBAgQIAAAQIECBAgQIAAAQIEmlCgpdJzHjt2bKWb1B4BAk0m0N7e3mQzNl0CBAgQIECAAAECBAgQIECAAAECBAgQIECAAAECBNLPCTs6OqAQIECgWwL1GrdU8QCtAQMGdAtGZQIECBAgQIAAAQIECBAgQIAAAQIECBAgQIAAAQIECBAgQIAAAQIECPRUoF7jlmxx2NM763oCBAgQIECAAAECBAgQIECAAAECBAgQIECAAAECBAgQIECAAAECBAiUEKj4Clol+lFMgACBsgU2bNiQqNvS4kdVAkSGAAECBAgQIECAAAECBAgQIECAAAECBAgQIECAQAMKpJ8TNuAUTYkAgSYVqHjUw8yZMxOU48ePT+RlCBAg0JXA7bffnqiS3ms6cVKGAAECBAgQIECAAAECBAgQIECAAAECBAgQIECAAIGGEEg/J2xra2uIeZkEAQK1E0jHLR166KG167yTnioeoLV27dpOunOKAAECBAgQIECAAAECBAgQIECAAAECBAgQIECAAAECBAgQIECAAAEClReo17il3pWfqhYJECBAgAABAgQIECBAgAABAgQIECBAgAABAgQIECBAgAABAgQIECBAIAoI0PI6IECAAAECBAgQIECAAAECBAgQIECAAAECBAgQIECAAAECBAgQIECAQJUEBGhVCVazBAgQIECAAAECBAgQIECAAAECBAgQIECAAAECBAgQIECAAAECBAgQEKDlNUCAAAECBAgQIECAAAECBAgQIECAAAECBAgQIECAAAECBAgQIECAAIEqCQjQqhKsZgkQIECAAAECBAgQIECAAAECBAgQIECAAAECBAgQIECAAAECBAgQINCCgAABAvUm0NLiR1O93RPjIUCAAAECBAgQIECAAAECBAgQIECAAAECBAgQIFBtAc8Jqy2sfQIENpdAxaMgxo8fv7nmol8CBBpEYMqUKQ0yE9MgQIAAAQIECBAgQIAAAQIECBAgQIAAAQIECBAgQKBcgfRzwo6OjnIvVY8AAQIZgXqNW6p4gFbfvn3dcgIECBAgQIAAAQIECBAgQIAAAQIECBAgQIAAAQIECBAgQIAAAQIECNRUoF7jlnrXVEFnBAgQIECAAAECBAgQIECAAAECBAgQIECAAAECBAgQIECAAAECBAgQaCKBiq+g1UR2pkqAQJUE1q1bl2i5T58+ibwMAQIECBAgQIAAAQIECBAgQIAAAQIECBAgQIAAAQKNJ5B+Tth4MzQjAgSaVaDiAVrTp09PWE6cODGRlyFAgEBXAlOnTk1UaW9vT+RlCBAgQIAAAQIECBAgQIAAAQIECBAgQIAAAQIECBBoPIH0c8K2trbGm6QZESBQVYF03NKUKVOq2l+5jVc8QGvDhg3l9q0eAQIECBAgQIAAAQIECBAgQIAAAQIECBAgQIAAAQIECBAgQIAAAQIEKiJQr3FLvSsyO40QIECAAAECBAgQIECAAAECBAgQIECAAAECBAgQIECAAAECBAgQIECAQIGAAK0CEgUECBAgQIAAAQIECBAgQIAAAQIECBAgQIAAAQIECBAgQIAAAQIECBCojIAArco4aoUAAQIECBAgQIAAAQIECBAgQIAAAQIECBAgQIAAAQIECBAgQIAAAQIFAgK0CkgUECBAgAABAgQIECBAgAABAgQIECBAgAABAgQIECBAgAABAgQIECBAoDICArQq46gVAgQIECBAgAABAgQIECBAgAABAgQIECBAgAABAgQIECBAgAABAgQIFAi0FJQoIECAwGYW6NOnz2Yege4JECBAgAABAgQIECBAgAABAgQIECBAgAABAgQIEKi1gOeEtRbXHwECtRKoeIDWxIkTazV2/RAg0KACkydPbtCZmRYBAgQIECBAgAABAgQIECBAgAABAgQIECBAgAABAqUE0s8JOzo6SlVVToAAgaIC9Rq3VPEArZaWijdZFFQhAQIECBAgQIAAAQIECBAgQIAAAQIECBAgQIAAAQIECBAgQIAAAQIEsgL1GrfUOztA3wkQIECAAAECBAgQIECAAAECBAgQIECAAAECBAgQIECAAAECBAgQIECgsgKWu6qsp9YIEKiAwOrVqxOt9O/fP5GXIUCAAAECBAgQIECAAAECBAgQIECAAAECBAgQIECg8QTSzwkbb4ZmRIBAswpUPEBr2rRpCcu2trZEXoYAAQJdCdx7772JKu3t7Ym8DAECBAgQIECAAAECBAgQIECAAAECBAgQIECAAAECjSeQfk4o3qDx7rEZEai2QDpuqV7iDWxxWO07r30CBAgQIECAAAECBAgQIECAAAECBAgQIECAAAECBAgQIECAAAECBJpWQIBW0956EydAgAABAgQIECBAgAABAgQIECBAgAABAgQIECBAgAABAgQIECBAoNoCArSqLax9AgQIECBAgAABAgQIECBAgAABAgQIECBAgAABAgQIECBAgAABAgSaVkCAVtPeehMnQIAAAQIECBAgQIAAAQIECBAgQIAAAQIECBAgQIAAAQIECBAgQKDaAgK0qi2sfQIECBAgQIAAAQIECBAgQIAAAQIECBAgQIAAAQIECBAgQIAAAQIEmlZAgFbT3noTJ0CAAAECBAgQIECAAAECBAgQIECAAAECBAgQIECAAAECBAgQIECg2gIt1e5A+wQIEOiuQP/+/bt7ifoECBAgQIAAAQIECBAgQIAAAQIECBAgQIAAAQIECGzhAp4TbuE30PAJECgpUPEArba2tpKdOUGAAIFyBCZNmlRONXUIECBAgAABAgQIECBAgAABAgQIECBAgAABAgQIEGgggfRzwo6OjgaanakQIFALgXqNW7LFYS3uvj4IECBAgAABAgQIECBAgAABAgQIECBAgAABAgQIECBAgAABAgQIEGhKAQFaTXnbTZoAAQIECBAgQIAAAQIECBAgQIAAAQIECBAgQIAAAQIECBAgQIAAgVoIVHyLww0bNiTG3dJS8S4S7csQINB4AumlSgcNGtR4kzQjAgQIECBAgAABAgQIECBAgAABAgQIECBAgAABAgQSAunnhImTMgQIEChDIB23VMYlNalS8eip6dOnJwZer3s7JgYpQ4BAXQlMmzYtMZ729vZEXoYAAQIECBAgQIAAAQIECBAgQIAAAQIECBAgQIAAgcYTSD8nFG/QePfYjAhUWyAdt1Qv8Qa2OKz2ndc+AQIECBAgQIAAAQIECBAgQIAAAQIECBAgQIAAAQIECBAgQIAAAQJNKyBAq2lvvYkTIECAAAECBAgQIECAAAECBAgQIECAAAECBAgQIECAAAECBAgQIFBtAQFa1RbWPgECBAgQIECAAAECBAgQIECAAAECBAgQIECAAAECBAgQIECAAAECTSsgQKtpb72JEyBAgAABAgQIECBAgAABAgQIECBAgAABAgQIECBAgAABAgQIECBQbQEBWtUW1j4BAgQIECBAgAABAgQIECBAgAABAgQIECBAgAABAgQIECBAgAABAk0rIECraW+9iRMgQIAAAQIECBAgQIAAAQIECBAgQIAAAQIECBAgQIAAAQIECBAgUG2Blkp30NJS8SYrPUTtESBQ5wKDBg2q8xEaHgECBAgQIECAAAECBAgQIECAAAECBAgQIECAAAEClRbwnLDSotoj0HwC9Rq3VPFoqokTJzbf3TVjAgQqKtDW1lbR9jRGgAABAgQIECBAgAABAgQIECBAgAABAgQIECBAgED9C6SfE3Z0dNT/oI2QAIG6EqjXuCVbHNbVy8RgCBAgQIAAAQIECBAgQIAAAQIECBAgQIAAAQIECBAgQIAAAQIECBBoJAEBWo10N82FAAECBAgQIECAAAECBAgQIECAAAECBAgQIECAAAECBAgQIECAAIG6Eqj4Fodr165NTLBv376JvAwBAgS6EnjxxRcTVXbYYYdEXoYAAQIECBAgQIAAAQIECBAgQIAAAQIECBAgQIAAgcYTSD8nbGmpeEhD46GZEQECCYF03NKgQYMS5zdXpuI/zWbOnJmYS3qP2MRJGQIECBQRmD59eqK0vb09kZchQIAAAQIECBAgQIAAAQIECBAgQIAAAQIECBAgQKDxBNLPCcUbNN49NiMC1RZIxy3VS7yBLQ6rfee1T4AAAQIECBAgQIAAAQIECBAgQIAAAQIECBAgQIAAAQIECBAgsYzXbgAAQABJREFUQIBA0woI0GraW2/iBAgQIECAAAECBAgQIECAAAECBAgQIECAAAECBAgQIECAAAECBAhUW0CAVrWFtU+AAAECBAgQIECAAAECBAgQIECAAAECBAgQIECAAAECBAgQIECAQNMKCNBq2ltv4gQIECBAgAABAgQIECBAgAABAgQIECBAgAABAgQIECBAgAABAgQIVFtAgFa1hbVPgAABAgQIECBAgAABAgQIECBAgAABAgQIECBAgAABAgQIECBAgEDTCgjQatpbb+IECBAgQIAAAQIECBAgQIAAAQIECBAgQIAAAQIECBAgQIAAAQIECFRboKXSHfTt27fSTWqPAIEmE9hhhx2abMamS4AAAQIECBAgQIAAAQIECBAgQIAAAQIECBAgQICA54ReAwQI9FSgXuOWKh6gNX78+J5auZ4AgSYXmDhxYpMLmD4BAgQIECBAgAABAgQIECBAgAABAgQIECBAgACB5hNIPyfs6OhoPgQzJkCgRwL1Grdki8Me3VYXEyBAgAABAgQIECBAgAABAgQIECBAgAABAgQIECBAgAABAgQIECBAoLSAAK3SNs4QIECAAAECBAgQIECAAAECBAgQIECAAAECBAgQIECAAAECBAgQIECgRwIV3+Jw1apViQENGDAgkZchQIBAVwJLly5NVGltbU3kZQgQIECAAAECBAgQIECAAAECBAgQIECAAAECBAgQaDyB9HPCPn36NN4kzYgAgaoKpOOWBg0aVNX+ym284gFas2bNSvTd1taWyMsQIECgK4EZM2YkqrS3tyfyMgQIECBAgAABAgQIECBAgAABAgQIECBAgAABAgQINJ5A+jmheIPGu8dmRKDaAum4pWHDhlW7y7Lat8VhWUwqESBAgAABAgQIECBAgAABAgQIECBAgAABAgQIECBAgAABAgQIECBAoPsCArS6b+YKAgQIECBAgAABAgQIECBAgAABAgQIECBAgAABAgQIECBAgAABAgQIlCUgQKssJpUIECBAgAABAgQIECBAgAABAgQIECBAgAABAgQIECBAgAABAgQIECDQfQEBWt03cwUBAgQIECBAgAABAgQIECBAgAABAgQIECBAgAABAgQIECBAgAABAgTKEhCgVRaTSgQIECBAgAABAgQIECBAgAABAgQIECBAgAABAgQIECBAgAABAgQIEOi+gACt7pu5ggABAgQIECBAgAABAgQIECBAgAABAgQIECBAgAABAgQIECBAgAABAmUJtJRVqxuVBgwYkKvdK3fkgAABAuULtLa2ll9ZTQIECBAgQIAAAQIECBAgQIAAAQIECBAgQIAAAQIEGkLAc8KGuI0mQWCzCtRr3FLFA7TGjh27WaF1ToDAli8wYcKELX8SZkCAAAECBAgQIECAAAECBAgQIECAAAECBAgQIECAQLcE0s8JOzo6unW9ygQIEKjXuCVbHHptEiBAgAABAgQIECBAgAABAgQIECBAgAABAgQIECBAgAABAgQIECBAoEoCArSqBKtZAgQIECBAgAABAgQIECBAgAABAgQIECBAgAABAgQIECBAgAABAgQIVHyLw+XLlydUBw8enMjLECBAoCuBJUuWJKoMHTo0kZchQIAAAQIECBAgQIAAAQIECBAgQIAAAQIECBAgQKDxBNLPCfv37994kzQjAgSqKpCOWxo0aFBV+yu38YoHaM2ZMyfRd1tbWyIvQ4AAga4EHnvssUQVAVoJDhkCBAgQIECAAAECBAgQIECAAAECBAgQIECAAAECDSmQfk4o3qAhb7NJEaiqQDpuacSIEVXtr9zGbXFYrpR6BAgQIECAAAECBAgQIECAAAECBAgQIECAAAECBAgQIECAAAECBAgQ6KaAAK1ugqlOgAABAgQIECBAgAABAgQIECBAgAABAgQIECBAgAABAgQIECBAgACBcgUEaJUrpR4BAgQIECBAgAABAgQIECBAgAABAgQIECBAgAABAgQIECBAgAABAgS6KSBAq5tgqhMgQIAAAQIECBAgQIAAAQIECBAgQIAAAQIECBAgQIAAAQIECBAgQKBcAQFa5UqpR4AAAQIECBAgQIAAAQIECBAgQIAAAQIECBAgQIAAAQIECBAgQIAAgW4KCNDqJpjqBAgQIECAAAECBAgQIECAAAECBAgQIECAAAECBAgQIECAAAECBAgQKFegpdyK5dYbPHhwuVXVI0CAQFGBoUOHFi1XSIAAAQIECBAgQIAAAQIECBAgQIAAAQIECBAgQIBA4wp4Tti499bMCNRKoF7jlioeoDVmzJhameqHAIEGFRg3blyDzsy0CBAgQIAAAQIECBAgQIAAAQIECBAgQIAAAQIECBAoJZB+TtjR0VGqqnICBAgUFajXuCVbHBa9XQoJECBAgAABAgQIECBAgAABAgQIECBAgAABAgQIECBAgAABAgQIECDQcwEBWj031AIBAgQIECBAgAABAgQIECBAgAABAgQIECBAgAABAgQIECBAgAABAgSKClR8i8OlS5cmOmptbU3kZQgQINCVwKJFixJVhg8fnsjLECBAgAABAgQIECBAgAABAgQIECBAgAABAgQIECDQeALp54Tbbbdd403SjAgQqKpAOm5p0KBBVe2v3MYrHqA1f/78RN8CtBIcMgQIlCEwe/bsRC0BWgkOGQIECBAgQIAAAQIECBAgQIAAAQIECBAgQIAAAQINKZB+TtjW1taQ8zQpAgSqJ5COW9p9992r11k3WrbFYTewVCVAgAABAgQIECBAgAABAgQIECBAgAABAgQIECBAgAABAgQIECBAgEB3BARodUdLXQIECBAgQIAAAQIECBAgQIAAAQIECBAgQIAAAQIECBAgQIAAAQIECHRDoOJbHHajb1UJECBAgAABAgQIECBAgAABAgS6EFi+fHlYsGBBWLp0aXjhhRfCtttuG1pbW0Ncnn2nnXYKvXv7/3ddEDpNgAABAgQIECBAgAABAgQIECBAYLMKCNDarPw6J0CAAAECBAgQIECAAAECBAgUCixbtixcddVV4Zprrgm33nprYYW8kokTJ4ZDDjkknHnmmWHo0KF5ZxwSIECAAAECBAgQIECAAAECBAgQIFAPAv6LZT3cBWMgQIAAAQIECBAgQIAAAQIECLwmsGHDhnDppZeGUaNGhdNOO63L4KyINn369HDhhReGYcOGhf/6r/8KL7/8MksCBAgQIECAAAECBAgQIECAAAECBOpIwApadXQzDIUAAQIECBAgQIAAAQIECBBoXoGXXnopvPWtbw133333JiOcfvrpmQCvK6+8MowfP36T26nnC2+55ZZwww035IZ48MEHh+OPPz6Xb5SDGKx31lln5QLu4laWcZW07bffvlGmaB4ECBAgQIAAAQIECBAgQIAAgaYRqHiAVmtra9PgmSgBAtURGD58eHUa1ioBAgQIECBAgAABAgTqVODFF18MxxxzTLj//vs7HeHkyZMz2xjOnz8/PPHEE2HlypUF9WfNmhWOO+64MHPmzDB48OCC81t6wR133BG++93v5qZx4oknNmSA1vr168P555+fm2c8+OhHPypAKyEiQ4AAAQIECBAgQIBAowl4Tthod9R8CNReoF7jlioeoBWX4JcIECDQE4E999yzJ5e7lgABAgQIECBAgAABAluUQFwp6e1vf3vR4KyBAweGH/7wh2HSpElh9OjRYauttkrMLQZhnX322eH6669PlC9evDicfPLJ4Zprrglx5SWJAAECBAgQIECAAAECBAhsCQLp54QdHR1bwrCNkQCBOhKo17glf6GroxeJoRAgQIAAAQIECBAgQIAAAQLNJ/C9732v6LaGU6ZMCY8//nj4yEc+EuIfqNPBWVEqbmN43XXXhZtuuqkALgZt/eAHPygoV0CAAAECBAgQIECAAAECBAgQIECAQG0FBGjV1ltvBAgQIECAAAECBAgQIECAAIGcwNy5c8MZZ5yRy2cPzjzzzEzQ1c4775wt6vR7e3t7+M1vflNQ59vf/nZ49dVXC8oVECBAgAABAgQIECBAgAABAgQIECBQO4GKb3G4ZMmSxOiHDh2ayMsQIECgK4EFCxYkqowcOTKRlyFAgAABAgQIECBAgECjCFx00UUFU3nHO94Rzj333ILyrgre//73h5tvvjlcfvnluaovvPBCmDFjRth///1zZeUcrF27NvTq1Sv06dOnnOrqECBAgAABAgQIECBAgACBigiknxPusMMOFWlXIwQINI9AOm5p0KBBdTH5igdoLVq0KDExAVoJDhkCBMoQiP+DPD8J0MrXcEyAAAECBAgQIECAQKMIrFixougWhBdffPEmT/FjH/tYIkArNvSXv/ylywCtZ599Nlx99dXhmmuuCQ8//HBYuXJlZgxDhgwJBx54YJgwYUKYPHlyOOaYY7oc20MPPRTuvffeXL0jjzwy7LXXXpn87NmzM/3ceuut4emnnw5Lly4N8W9HI0aMCEcddVQ44YQTwq677pq7Nnswc+bMcNddd2Wyt99+e7Y48/3BBx8MP/7xj3NlJ510Uujfv38unz6I/f7hD3/IuCxcuDCsWrUqrF+/PowePTrss88+mTEccsghoXfvzheejyuT/fSnPw0vv/xyposBAwaED3/4w5njNWvWhBtuuCH87ne/C0888URYvHhxpjzOc9y4ceG9731vZr4tLck/zW3cuDHTZhzPP/7xj/TQw89+9rOcT2zn8MMPL6ijgAABAgQIECBAgAABAluyQPo5YVtb25Y8HWMnQGAzCKTjlvbcc8/NMIrCLnu99oefjYXFm14S/6dmfvIDM1+jesc73fiV6jWu5ZzAc8d8M3fsoHoC06ZNSzQet+qQCBAgQIAAAQIECBAg0GgCv/3tbzOBOvnzOuWUUzIBOvll3T0+9NBDw5w5c3KXvfvd704EMOVOvHawYcOG8N3vfjd88YtfzC8uefyud70rXHjhhWHYsGEl63z9618PX/va13LnY/0YNHX22WeH73//+7nyUgeXXnppiIFm+emb3/xmOOuss/KLSh4//vjjuYCw/EoxIO6cc87JzDe/vNjxHnvsES655JIwZcqUYqczZXGVsX79+iXOxz+z3XnnneHkk08O8+bNS5xLZ2LA25VXXhnyt7GM92PrrbdOVy2a/8AHPhCuuOKKoucUEiBAgAABAgQIECBAYEsVEG+wee6ceIPauIs3qI1zvcYbJP+bXm0s9EKAAAECBAgQIECAAAECBAgQaHqB/FWmshgxkKmnKbvSVFftrFu3Lpx44okhBoqVm6699trMNoo/+clPwgc/+MGyLlu2bFlmpafp06eXVf/jH/94iEvPx9W0KpWeeeaZEFfyevLJJ8tqMtY74ogjwuc///lwwQUXZLZ7LOfCX/7yl5lgtHLqTp06NbzlLW8Jf/vb30Lfvn3LuUQdAgQIECBAgAABAgQIECBAgACBLVSg87Xat9BJGTYBAgQIECBAgAABAgQIECBAoN4F7rjjjoIhxu0Ea5VOP/30ksFZ48ePzwQ0FRtL3P7wQx/6UCg34OqrX/1q2XWz/cUVtPK3+Ct3Val4fXrbwDjegw8+uGRw1m677ZbttuB7XF0srrpVbupugF3cujGuMLYpaZttttmUy1xDgAABAgQIECBAgAABAgQIECCwGQQEaG0GdF0SIECAAAECBAgQIECAAAECBNIBTjEoKr1lXrWUHnnkkXDxxRcXNB+33Ovo6AgzZswIt9xyS3j55ZfDww8/HOJ2eukUg6jilnzdSUcddVS4/fbbw+rVq0PcDvDZZ58Nv/jFLwqaiEFVt912W648rmS1atWqzFc8zk/vec97cudiu6NHj84/Hb7zne+ExYsXJ8p22WWX8Je//CUzjqeeeirE7Qrvv//+cMYZZyTqxUwMMMvfMrKgQpGCgQMHhvPOOy/ElbteffXVsH79+kz7xx57bEHtaJ5NMbgsBqbFuT7//PPZ4tz3Bx98MDfXuBWkRIAAAQIECBAgQIAAAQIECBAgsGUICNDaMu6TURIgQIAAAQIECBAgQIAAAQINJBADgtJpwoQJ6aKq5b/0pS8VtH3TTTeF973vfSEGF2VTDBiK44pBVO9617uyxZnvMcDsoosuSpR1lvnsZz8bbrzxxsx2h9tuu22m6tChQ8OHP/zhoit5/fWvf801F8fRv3//zFf22uzJuD1gqXMLFy4M3/jGN7JVM9+PO+64EAPUjj766JBtq0+fPuENb3hDOP/888N//ud/JurHzK9//euCslIFQ4YMCffcc0/44he/GIYNG5bZHjGuABbbj9tJpldJi475wVgxSC/OZ8CAAQVdZOcZv3dnVbGChhQQIECAAAECBAgQIECAAAECBAjUVECAVk25dUaAAAECBAgQIECAAAECBAgQCGHFihUFDIMHDy4oq0bBrbfeGv70pz8lmr7ssstCe3t7oiw/EwOkfvOb32S2Cswvj9skxhWiukoxKCluF9i7d/E/RR1//PEhvdVgXH2qp+nMM89MNBGDzy6//PKw/fbbJ8rzM1/4whdC/MpPcbWxclcL+/nPfx722Wef/MtzxzGwKr0CWDyZH6CVq+yAAAECBAgQIECAAAECBAgQIECgYQRaKj2T+D8fJQIECPREYOTIkT253LUECBAgQIAAAQIECBCoe4E1a9YUjHHQoEEFZdUoiIFW6RRXzuoqxZWqPvOZz4T77rsvUTVuUxi3DOwsffvb386sJNVZnbjC1Lx583JVXnjhhdzxphwsXbo0E1SWf+33vve9EFe46ip9+tOfDhdccEGuWhxLDGyLq251liZPnhyKbWOYf02x4K1ly5blV3FMgAABAgQIECBAgACBphXwnLBpb72JE6iYQL3GLVU8QGv48OEVQ9MQAQLNKTB69OjmnLhZEyBAgAABAgQIECDQNALFgrFWr15dk/k/8cQTiX5iMFKx7fQSlf5/5i1veUtB8dy5czsN0IorYx1xxBEF16UL9t9//3D11VfninsatDRnzpxcW9mDY445JnvY6ff496246tf999+fqxcD07oK0PrUpz6Vq1/qYI899ig4VWxFtYJKCggQIECAAAECBAgQINAEAunnhB0dHU0wa1MkQKCSAvUat1TxAK1KommLAAECBAgQIECAAAECBAgQINCIAsUCtPJXj6rmnGfOnJlo/qijjkrkO8vEcccAoyeffDJXLQZCTZkyJZdPH+y9997poqL59B/Pyt1SsGhjrxU+9dRTBafiVoLlbie4zTbbJK5fuHBhIl8ss/vuuxcrTpRtvfXWmYC2xYsX58rL2SYyV9kBAQIECBAgQIAAAQIECBAgQIDAFicgQGuLu2UGTIAAAQIECBAgQIAAAQIECGzpAi0tLWHgwIFh5cqVuakUW/Epd7JCBy+99FKiz9hsV9sTprseNmxYIkBr9uzZ6SqJ/HbbbZfIl8r07t271KlNKi/mGbdR3NS0fPnyLi+N91QiQIAAAQIECBAgQIAAAQIECBAgkBaoeIDWokWLEn2k//dj4qQMAQIEigjE7THyU3op0/xzjgkQIECAAAECBAgQILClCgwdOjQRLDVr1qywcePG0KtXrx5N6c477ww33nhjro2+ffuGs846K9Pu/Pnzc+XZgxhw1Z2UDkLqaivCfv36daf5itVNb+XY04bXrl3bZRN9+vTpso4KBAgQIECAAAECBAgQIFBaIP2ccMiQIaUrO0OAAIEiAum4pXHjxhWpVfuiigdoLVmyJDELAVoJDhkCBMoQWLBgQaKWAK0EhwwBAgQIECBAgAABAg0iMGnSpMRKVHFacdu7nv4t5Qc/+EG49tprc0rxj9lnn312Jr9q1apcefagu0FFzz33XPbSzPddd901ka+XTLG59mRs5WxD2NPgup6Mz7UECBAgQIAAAQIECBBoBIH0c0IBWo1wV82BQG0F0nFLDRugVVtWvREgQIAAAQIECBAgQIAAAQIEtkyBKVOmhF/84heJwV922WXhG9/4RqKsO5m4ylN+cFa89m1ve1uuiWLBVPGPVttvv32uTlcHCxcuTFQZNWpUIl8vmfR/9olbOf75z3/e5OG97nWv2+RrXUiAAAECBAgQIECAAAECBAgQINDcAhVfQau5Oc2eAAECBAgQIECAAAECBAgQIFCewKGHHlpQ8Zxzzgmnn3562GGHHQrOlVNw3XXXFVR705velCvbeeedc8fZg7js+957753Ndvp9xYoV4YUXXkjUGTlyZCJfL5k999wzMZQ49n333TdRJkOAAAECBAgQIECAAAECBAgQIECgFgK9a9GJPggQIECAAAECBAgQIECAAAECBJICcYWnsWPHJgtfy1144YUFZeUUbNiwIXz5y18uqHrYYYflylpaWsIee+yRy8eD++67L5HvLPPHP/6x4PSIESMKyuqhYPfdd08MY+XKleH5559PlHWWue2228JVV12V+3rmmWc6q+4cAQIECBAgQIAAAQIECBAgQIAAgZICArRK0jhBgAABAgQIECBAgAABAgQIEKiuQLHtDL/zne+EefPmdbvjCy64oOC6I488MqRXzRo3blyi7djfmjVrEmWlMldccUXi1MCBA8Pw4cMTZfWSSW9xGMeV3lKy1Fjnz58fot373//+3NfDDz9cqrpyAgQIECBAgAABAgQIECBAgAABAp0KCNDqlMdJAgQIECBAgAABAgQIECBAgED1BN75zncWrKIVV3o6/PDDw8KFC8vu+MorrwxnnnlmQf1LL720oOxtb3tboiz2F6/vKk2fPj3ccMMNiWpf/epXQ1yVa3OmjRs3Fu0+br2YXi3sm9/8Zli9enXR+vmFcV75KQaitbe35xc5JkCAAAECBAgQIECAAAECBAgQIFC2gACtsqlUJECAAAECBAgQIECAAAECBAhUVmCrrbYKF198cUGjixcvDvvuu2+46KKLwvr16wvOZwuWL18eTj311PCBD3wgW5T7HrdKTG/zF0+eeOKJBUFhH/3oR8Pvfve73LXpg9mzZ4cpU6YkimPQ0ic+8YlEWS0y0Sw/XX/99UWDrmLg2E9+8pP8qiEGo8VVsVasWJEoz2ZeeeWVEFcU+9WvfpUtynw/6aSTQp8+fRJl1c707l34Z7t0gFy1x6B9AgQIECBAgAABAgQIECBAgACByghU/L841uuy9pXh0goBArUQKLYNRS361QcBAgQIECBAgAABAgQ2h8DkyZPDL3/5y/DhD3840X0MJjrttNPCl770pfCOd7wjHHTQQaG1tTXEwJ3nn38+3HnnneG3v/1t4pps5o1vfGP413/912w28T0GLn3/+98Pb37zmxPlxx9/fDjrrLPCMcccE8aPH58JSHrkkUfCtGnTQlxRKo4nP33lK18JAwYMyC+qyfFOO+2U6CeO65RTTgnHHXdc6N+/f+Z73759M3XiNoXvfe97w9VXX5275g9/+ENoa2sL559/fiYIbtSoURnPRx99NHz7298Ot956a65uPBgyZEhm/onCGmTiHGIQXL772WefHeKKYbvssktmdbAJEybUYCS6IECAAAECBAgQIECAQO0EPCesnbWeCDSqQL3GLVU8QGvo0KGNeg/NiwCBGgnEbSgkAgQIECBAgAABAgQINJNAXNXqhRdeCP/+7/9eMO0YoPPrX/8681VwskhBXOnqmmuuCemVpvKrHn300Zmgr7j6VH4655xzQvzqKsUArk9+8pNdVavK+T333LOg3RiAlQ3Cevzxx8Nee+2Vq/Pd7343szVjfqDTk08+Gf7lX/4lV6ezg2i54447dlalauf222+/MHXq1Fz7cQ6f+9znMvm4atoVV1yRO+eAAAECBAgQIECAAAECjSCQfk7Y0dHRCNMyBwIEaihQr3FLhWul1xBFVwQIECBAgAABAgQIECBAgAABAv8n8PnPfz489thjIa76tKkprrh14403hsGDB3fZRFx9K66C1d00duzYcNNNN2VWd+rutZWof9hhh2VWjyq3rbjaVFwJLK5U1t0Ug77iamSbK33605/eXF3rlwABAgQIECBAgAABAgQIECBAoIICArQqiKkpAgQIECBAgAABAgQIECBAgEBPBGLw0y233JJZDSpurVdues973pMJ7vrRj36U2ZqwnOu23nrrzGpZN998c2Ybv3KuOffcc8MDDzzQaf0+ffokmurXr18iXyqzzTbbJE6V2j4xbvF43XXXdStIa8SIEZmtC88777xEH6UycUvJOXPmhOhaKsVxpFN6Dunz2fy2226bPcx8T5tlT7773e8OF1xwQTbrOwECBAgQIECAAAECBAgQIECAwBYq0Gvja6mSY58xY0aiuVGjRiXyMtUR2OnG7v+P1+qMpLFbfe6Ybzb2BOtkdkuWLEmMpNj2FYkKMgQIECBAgAABAgQIEGhAgVdffTU8/fTTIW7HF7ftmzVrVpg7d27o379/JkAqLtd+8MEHh7ii1MCBA3sksGbNmkwfM2fODPEr+/ednXbaKcQVqOK2iYcffnhIBxb1qNMKXBxd5s2bF1555ZWMwW677RZiMFZnafny5Zn5PfTQQ2H69Onh2WefDcOGDcvMc/fddw9vfetbQ5x3PaW4tWG894sWLQoxsK61tTXEYL56ux/1ZGYsBAgQIECAAAECBAhsmQKzZ89ODLxetypLDLIBMuINanMTxRvUxnn+/PmJjiZMmJDIb65MS6U7Xrp0aaJJAVoJDhkCBMoQiH9wzk8CtPI1HBMgQIAAAQIECBAg0CwCcYWmkSNHZr6OPvroqk47rnI1ceLEzFdVO6pw43vvvXeIX91JcfvHGHAWv7aUFAPw9t9//8zXljJm4yRAgAABAgQIECBAgMCmCKSfEwrQ2hRF1xBoboF03FK9aBSuxV4vIzMOAgQIECBAgAABAgQIECBAgAABAgQIECBAgAABAgQIECBAgAABAgQIbOECArS28Bto+AQIECBAgAABAgQIECBAgAABAgQIECBAgAABAgQIECBAgAABAgQI1K+AAK36vTdGRoAAAQIECBAgQIAAAQIECBAgQIAAAQIECBAgQIAAAQIECBAgQIDAFi4gQGsLv4GGT4AAAQIECBAgQIAAAQIECBAgQIAAAQIECBAgQIAAAQIECBAgQIBA/QoI0Krfe2NkBAgQIECAAAECBAgQIECAAAECBAgQIECAAAECBAgQIECAAAECBAhs4QICtLbwG2j4BAgQIECAAAECBAgQIECAAAECBAgQIECAAAECBAgQIECAAAECBAjUr0BLpYc2atSoSjepPQIEmkxgzz33bLIZmy4BAgQIECBAgAABAgQIECBAgAABAgQIECBAgAABAp4Teg0QINBTgXqNW6p4gFZra2tPrVxPgECTCwwfPrzJBUyfAAECBAgQIECAAAECBAgQIECAAAECBAgQIECAQPMJpJ8TdnR0NB+CGRMg0COBeo1bssVhj26riwkQIECAAAECBAgQIECAAAECBAgQIECAAAECBAgQIECAAAECBAgQIFBaQIBWaRtnCBAgQIAAAQIECBAgQIAAAQIECBAgQIAAAQIECBAgQIAAAQIECBAg0COBim9xOGfOnMSAxowZk8jLECBAoCuBxx57LFFl3LhxibwMAQIECBAgQIAAAQIECBAgQIAAAQIECBAgQIAAAQKNJ5B+Tpje8rDxZmxGBAhUWiAdt3TAAQdUuotNaq/iAVrLly/fpIG4iAABAlmBJUuWZA8z3wVoJThkCBAgQIAAAQIECBAgQIAAAQIECBAgQIAAAQIECDSkQPo5oQCthrzNJkWgqgL1Grdki8Oq3naNEyBAgAABAgQIECBAgAABAgQIECBAgAABAgQIECBAgAABAgQIECDQzAICtJr57ps7AQIECBAgQIAAAQIECBAgQIAAAQIECBAgQIAAAQIECBAgQIAAAQJVFRCgVVVejRMgQIAAAQIECBAgQIAAAQIECBAgQIAAAQIECBAgQIAAAQIECBAg0MwCArSa+e6bOwECBAgQIECAAAECBAgQIECAAAECBAgQIECAAAECBAgQIECAAAECVRUQoFVVXo0TIECAAAECBAgQIECAAAECBAgQIECAAAECBAgQIECAAAECBAgQINDMAgK0mvnumzsBAgQIECBAgAABAgQIECBAgAABAgQIECBAgAABAgQIECBAgAABAlUVaKl062PGjKl0k9ojQKDJBMaNG9dkMzZdAgQIECBAgAABAgQIECBAgAABAgQIECBAgAABAgQ8J/QaIECgpwL1GrdU8QCtwYMH99TK9QQINLnA0KFDm1zA9AkQIECAAAECBAgQIECAAAECBAgQIECAAAECBAg0n0D6OWFHR0fzIZgxAQI9EqjXuCVbHPbotrqYAAECBAgQIECAAAECBAgQIECAAAECBAgQIECAAAECBAgQIECAAAECpQUEaJW2cYYAAQIECBAgQIAAAQIECBAgQIAAAQIECBAgQIAAAQIECBAgQIAAAQI9Eqj4FoezZs1KDGjs2LGJvAwBAgS6EpgxY0aiyoQJExJ5GQIECBAgQIAAAQIECBAgQIAAAQIECBAgQIAAAQIEGk8g/Zxw1KhRjTdJMyJAoKoC6bilgw8+uKr9ldt4xQO0Vq1aVW7f6hEgQKCowNKlS4uWKyRAgAABAgQIECBAgAABAgQIECBAgAABAgQIECBAoHEF0s8JBWg17r02MwLVEqjXuCVbHFbrjmuXAAECBAgQIECAAAECBAgQIECAAAECBAgQIECAAAECBAgQIECAAIGmFxCg1fQvAQAECBAgQIAAAQIECBAgQIAAAQIECBAgQIAAAQIECBAgQIAAAQIECFRLQIBWtWS1S4AAAQIECBAgQIAAAQIECBAgQIAAAQIECBAgQIAAAQIECBAgQIBA0wsI0Gr6lwAAAgQIECBAgAABAgQIECBAgAABAgQIECBAgAABAgQIECBAgAABAgSqJSBAq1qy2iVAgAABAgQIECBAgAABAgQIECBAgAABAgQIECBAgAABAgQIECBAoOkFBGg1/UsAAAECBAgQIECAAAECBAgQIECAAAECBAgQIECAAAECBAgQIECAAAEC1RJoqXTDY8eOrXST2iNAoMkEJkyY0GQzNl0CBAgQIECAAAECBAgQIECAAAECBAgQIECAAAECBDwn9BogQKCnAvUat1TxAK0BAwb01Mr1BAg0uUBra2uTC5g+AQIECBAgQIAAAQIECBAgQIAAAQIECBAgQIAAgeYTSD8n7OjoaD4EMyZAoEcC9Rq3ZIvDHt1WFxMgQIAAAQIECBAgQIAAAQIECBAgQIAAAQIECBAgQIAAAQIECBAgQKC0gACt0jbOECBAgAABAgQIECBAgAABAgQIECBAgAABAgQIECBAgAABAgQIECBAoEcCFd/icObMmYkBjR8/PpGXIUCAQFcC06dPT1SZOHFiIi9DgAABAgQIECBAgAABAgQIECBAgAABAgQIECBAgEDjCaSfE44ePbrxJmlGBAhUVSAdt3TooYdWtb9yG694gNbatWvL7Vs9AgQIFBV48cUXi5YrJECAAAECBAgQIECAAAECBAgQIECAAAECBAgQIECgcQU8J2zce2tmBGolUK9xS7Y4rNUrQD8ECBAgQIAAAQIECBAgQIAAAQIECBAgQIAAAQIECBAgQIAAAQIECDSdgACtprvlJkyAAAECBAgQIECAAAECBAgQIECAAAECBAgQIECAAAECBAgQIECAQK0EBGjVSlo/BAgQIECAAAECBAgQIECAAAECBAgQIECAAAECBAgQIECAAAECBAg0nYAAraa75SZMgAABAgQIECBAgAABAgQIECBAgAABAgQIECBAgAABAgQIECBAgECtBARo1UpaPwQIECBAgAABAgQIECBAgAABAgQIECBAgAABAgQIECBAgAABAgQINJ2AAK2mu+UmTIAAAQIECBAgQIAAAQIECBAgQIAAAQIECBAgQIAAAQIECBAgQIBArQRaKt3R+PHjK92k9ggQaDKBiRMnNtmMTZcAAQIECBAgQIAAAQIECBAgQIAAAQIECBAgQIAAAc8JvQYIEOipQL3GLVU8QKtv3749tXI9AQJNLrDDDjs0uYDpEyBAgAABAgQIECBAgAABAgQIECBAgAABAgQIEGg+gfRzwo6OjuZDMGMCBHokUK9xS7Y47NFtdTEBAgQIECBAgAABAgQIECBAgAABAgQIECBAgAABAgQIECBAgAABAgRKCwjQKm3jDAECBAgQIECAAAECBAgQIECAAAECBAgQIECAAAECBAgQIECAAAECBHokUPEtDqdPn54YkD1iExwyBAiUITBt2rRErba2tkRehgABAgQIECBAgAABAgQIECBAgAABAgQIECBAgACBxhNIPyfca6+9Gm+SZkSAQFUF0nFLU6ZMqWp/5TZe8QCtDRs2lNu3egQIECgqYC/poiwKCRAgQIAAAQIECBAgQIAAAQIECBAgQIAAAQIECDS0gOeEDX17TY5ATQTqNW7JFoc1uf06IUCAAAECBAgQIECAAAECBAgQIECAAAECBAgQIECAAAECBAgQIECgGQUEaDXjXTdnAgQIECBAgAABAgQIECBAgAABAgQIECBAgAABAgQIECBAgAABAgRqIiBAqybMOiFAgAABAgQIECBAgAABAgQIECBAgAABAgQIECBAgAABAgQIECBAoBkFBGg14103ZwIECBAgQIAAAQIECBAgQIAAAQIECBAgQIAAAQIECBAgQIAAAQIEaiIgQKsmzDohQIAAAQIECBAgQIAAAQIECBAgQIAAAQIECBAgQIAAAQIECBAgQKAZBQRoNeNdN2cCBAgQIECAAAECBAgQIECAAAECBAgQIECAAAECBAgQIECAAAECBGoi0FLpXiZOnFjpJrVHgECTCbS1tTXZjE2XAAECBAgQIECAAAECBAgQIECAAAECBAgQIECAAAHPCb0GCBDoqUC9xi1VPECrpaXiTfbU3vUECGxhAoMGDdrCRmy4BAgQIECAAAECBAgQIECAAAECBAgQIECAAAECBAj0VCD9nLCjo6OnTbqeAIEmE6jXuCVbHDbZC9F0CRAgQIAAAQIECBAgQIAAAQIECBAgQIAAAQIECBAgQIAAAQIECBConYAArdpZ64kAAQIECBAgQIAAAQIECBAgQIAAAQIECBAgQIAAAQIECBAgQIAAgSYTqPh+hNOmTUsQ2iM2wSFDgEAZAvfee2+i1qRJkxJ5GQIECBAgQIAAAQIECBAgQIAAAQIECBAgQIAAAQIEGk8g/Zxw3LhxjTdJMyJAoKoC6bil9vb2qvZXbuMVD9Aqt2P1CBAgUEpg9erVpU4pJ0CAAAECBAgQIECAAAECBAgQIECAAAECBAgQIECgQQU8J2zQG2taBAgEWxx6ERAgQIAAAQIECBAgQIAAAQIECBAgQIAAAQIECBAgQIAAAQIECBAgQKBKAgK0qgSrWQIECBAgQIAAAQIECBAgQIAAAQIECBAgQIAAAQIECBAgQIAAAQIECAjQ8hogQIAAAQIECBAgQIAAAQIECBAgQIAAAQIECBAgQIAAAQIECBAgQIBAlQQEaFUJVrMECBAgQIAAAQIECBAgQIAAAQIECBAgQIAAAQIECBAgQIAAAQIECBAQoOU1QIAAAQIECBAgQIAAAQIECBAgQIAAAQIECBAgQIAAAQIECBAgQIAAgSoJCNCqEqxmCRAgQIAAAQIECBAgQIAAAQIECBAgQIAAAQIECBAgQIAAAQIECBAg0FJpgra2tko3qT0CBJpMYNKkSU02Y9MlQIAAAQIECBAgQIAAAQIECBAgQIAAAQIECBAgQCD9nPCVV16BQoAAgW4J1GvcUsUDtLqlojIBAgSKCPTv379IqSICBAgQIECAAAECBAgQIECAAAECBAgQIECAAAECBBpZIP2csKOjo5Gna24ECDSRgC0Om+hmmyoBAgQIECBAgAABAgQIECBAgAABAgQIECBAgAABAgQIECBAgAABArUVqPgKWhs2bEjMoKWl4l0k2pchQIAAAQIECBAgQIAAAQIECBAgQIAAAQIECBAgQIAAAQIECBAgQIBAOm6pXkQqHj01ffr0xNzqdW/HxCBlCBCoK4GpU6cmxjN58uREXoYAAQIECBAgQIAAAQIECBAgQIAAAQIECBAgQIAAgcYTSD8nnDBhQuNN0owIEKiqQDpuqb29var9ldt4xQO0yu1YPQIECJQSWLduXalTygkQIECAwP9r7+7/85gS/oFP6kIQF0GQUhUVpSUlJewuu93d/HD/UfeP3z/q/mEf7PNuURT1UARFUZQIgtBvzt73jM7YuSZzrjPpNH2f18urc87MOTPznsk1M1c+MgQIECBAgAABAgQIECBAgAABAgQIECBAYIcK+D3hDj2wdosAgWwXAwIECBAgQIAAAQIECBAgQIAAAQIECBAgQIAAAQIECBAgQIAAAQIECBDoRkBAqxtXoxIgQIAAAQIECBAgQIAAAQIECBAgQIAAAQIECBAgQIAAAQIECBAgQMBf0HIOECBAgAABAgQIECBAgAABAgQIECBAgAABAgQIECBAgAABAgQIECBAoCsBf0GrK1njEiBAgAABAgQIECBAgAABAgQIECBAgAABAgQIECBAgAABAgQIECBwyQsIaF3ypwAAAgQIECBAgAABAgQIECBAgAABAgQIECBAgAABAgQIECBAgAABAgS6EhikHngwSD5k6k00HgECBAgQIECAAAECBAgQIECAAAECBAgQIECAAAECBAgQIECAAAECO0ygr7ml5GmqxcXFHXbo7A4BAtst8MQTT2z3Kq2PAAECBAgQIECAAAECBAgQIECAAAECBAgQIECAAIELLFD9PeE333xzgbfI6gkQuNgE+ppbSh7QutgOjO0lQKB/AldeeWX/NsoWESBAgAABAgQIECBAgAABAgQIECBAgAABAgQIECDQqUD194QCWp1yG5wAgW0U2LWN67IqAgQIECBAgAABAgQIECBAgAABAgQIECBAgAABAgQIECBAgAABAgQIXFICyf+C1vr6eglwcnKyVFchQIAAAQIECBAgQIAAAQIECBAgQIAAAQIECBAgQIAAAQIECBAgQIBAaoFqbmk4HKZeRdR4yQNax48fL23I0tJSqa5CgACBJoEnn3yytMiRI0dKdRUCBAgQIECAAAECBAgQIECAAAECBAgQIECAAAECBHaeQPX3hIuLiztvJ+0RAQKdClRzS8vLy52ub6uDJw9obXXFliNAgECdwMbGRt0s7QQIECBAgAABAgQIECBAgAABAgQIECBAgAABAgQI7FABvyfcoQfWbhEgkO1iQIAAAQIECBAgQIAAAQIECBAgQIAAAQIECBAgQIAAAQIECBAgQIAAAQLdCAhodeNqVAIECBAgQIAAAQIECBAgQIAAAQIECBAgQIAAAQIECBAgQIAAAQIECPgLWs4BAgQIECBAgAABAgQIECBAgAABAgQIECBAgAABAgQIECBAgAABAgQIdCXgL2h1JWtcAgQIECBAgAABAgQIECBAgAABAgQIECBAgAABAgQIECBAgAABAgQueQEBrUv+FABAgAABAgQIECBAgAABAgQIECBAgAABAgQIECBAgAABAgQIECBAgEBXAoPUA09OTqYe0ngECBAgQIAAAQIECBAgQIAAAQIECBAgQIAAAQIECBAgQIAAAQIECBAYKdDX3FLygNbCwsJICDMJECDQJHDkyJGmRcwnQIAAAQIECBAgQIAAAQIECBAgQIAAAQIECBAgQGCHCVR/T/jVV1/tsD20OwQIdC3Q19xS8oBW15DGJ0Bg5wsMBj6adv5RtocECBAgQIAAAQIECBAgQIAAAQIECBAgQIAAAQIEygJ+T1j2UCNAYOcI7No5u2JPCBAgQIAAAQIECBAgQIAAAQIECBAgQIAAAQIECBAgQIAAAQIECBAg0C+B5H+mZm1trbSHU1NTpboKAQIECBAgQIAAAQIECBAgQIAAAQIECBAgQIAAAQIECBAgQIAAAQIEUgtUc0vD4TD1KqLGSx7QOnHiRGlDlpaWSnUVAgQINAn87ne/Ky2yvLxcqqsQIECAAAECBAgQIECAAAECBAgQIECAAAECBAgQILDzBKq/J5Q32HnH2B4R6FqgmlvavXt316vc0vhecbglJgsRIECAAAECBAgQIECAAAECBAgQIECAAAECBAgQIECAAAECBAgQIECgvYCAVnszPQgQIECAAAECBAgQIECAAAECBAgQIECAAAECBAgQIECAAAECBAgQILAlAQGtLTFZiAABAgQIECBAgAABAgQIECBAgAABAgQIECBAgAABAgQIECBAgAABAu0FBu276EGAAIHtFai+a3p5ebnYgHPnzmW///3vi3p1YmJiIvvtb39bNP/www/ZH/7wh6Jendi1a1f2m9/8pmj+/vvvsz/+8Y9FvTpx2WWXZb/+9a+L5o2NjezJJ58s6tWJwWCQHTlypGj+7rvvsj/96U9FvTrRdvnLL788+9WvflUM8+2332Z//vOfi3p14oorrsh++ctfFs3ffPNN9pe//KWoVyeuvPLK7Iknniia19fXs7/+9a9FvToxOTmZPf7440Xz119/nf3tb38r6tWJq666KvvFL35RNH/11VfZ3//+96Jenbj66quzn//850Xzl19+mf3jH/8o6tWJa665JvvZz35WNK+trWX//Oc/i3p1YmpqKnvssceK5i+++CL717/+VdSrE9dee2326KOPFs2rq6vZ0aNHi3p1YjgcZue/O/3zzz/PnnrqqepiRb3t8tddd132yCOPFP0/++yz7Omnny7q1Ynrr78+e/jhh4vms2fPZs8880xRr05MT09nhw8fLpo//fTT7NixY0W9OnHDDTdki4uLRfMnn3ySPfvss0W9OnHjjTdmDz30UNH88ccfZ88991xRr07cdNNN2YMPPlg0nzlzJnv++eeLenViZmYmO3ToUNH80UcfZcePHy/q1Ymbb745W1hYKJo//PDD7IUXXijq1Ylbbrkle+CBB4rmDz74IHvxxReLenXi1ltvze6///6iuWn52dnZ7ODBg8Xyp0+fzl566aWiXp2oLv/+++9n1Xdwn98nvI/7wIEDRdN7772Xvfzyy0W9OnHbbbdl9913X9H87rvvZq+88kpRr07cfvvt2b333ls0nzp1Knv11VeLenViz5492f79+4vmd955J3vttdeKenXijjvuyO65556i+e23385OnjxZ1KsTe/fuzebn54vmt956K3v99deLenXizjvvzO6+++6ieWVlJXvjjTeKenVibm4u27dvX9G88uab2Rub/9WVu+66Kwv/5eXNzWXDf3Vl3767srm5H5cP2xK2qa6EbQnblJewr2Gf60rY17DPeQmWwbSuBMtgmpdwrMIxqyvhWIVjlpdwLoRzoq6EcyGcE3kJ51o45+pKONfCOZeXcC6Hc7quhHM5nNN5CT8r4WemroSflfPfYR9+FsPPZF0JP7vhZzIvTcuHz4bwGZGX8FkSPiPqSnX58FkVPrPqSvisCp9ZeQmfheEzsa6Ez8LwmZiX8FkbPnPrSvisDZ+5eQmf5eEzva6Ez/LwmZ6XcK0I14y6Eq4V4ZqRl3AtCtekuhKuReGalJdwrQvXvLoSrnXhmpeXcC0N19S6Eq6l4Zqal3BtD9f4uhKu1eGanZdw7xDuIepK2+XDvUa4h8hLuJcJ9zR1JdzLhHuavIR7pXDPVFfCvVK4Z8pLuBcL92R1JdyLhXuyvIR7vXDPV1fCvV6458tLuJcM95R1JdxLhnvKvIR71XDPWlfCvWq4Z81LuBcO98R1JdwLh3vivIR77XDPXVfCvXa4585LuPcPzwB1JdzLh3v6vIRni/CMUVfaLh+eRcIzRl7Cs0545qkr4VknPPPkJTxLhWequhKepcIzVV7Cs1p4Zqsr4VktPLPlpfrsl7fn/15Kz4KXbx6nX20er7w0PTt6Fry4nwVXN68TRz0L5qf7v6/rngW3/uzoWbA4df490ftnwYZnx7bPgtXlPQuWzwfPgp4Fzz8j+v4smPrZ0bOgZ8Hzz/+L/Vnw/H0xTYAAgYtZ4MdvzS7mvbDtBAgQIECAAAECBAgQIECAAAECBAgQuAgF6mOM/7sz5wcZL8Lds8mJBZwPiUG3e7gRweWYTfkx5hzTWx8CBAgQIECAAAECBLZTQEBrO7WtiwABAgQIECBAgAABAgQIECBAgECDQFNgp6G72QQIECBAgAABAgQIECBAgAABAj0T+PHv2ifasPNfbZBoSMMQIECAAAECBAgQ2FECqX/pmvh/wt5R1naGwE4T8FczdtoRtT8ECBAgQIAAAQIECBAgQIAAAQIECKQU6GtuaeLcZkm5o6urqymHM9YWBW79n//e4pIWG0fgg//6f+N015cAAQIECBAgQIAAAQIECBAgQIAAAQIECBAgQIAAAQIECPRKQN5gew6HvMH2OFfXMhwOq00XpO4VhxeE3UoJECBAgAABAgQIECBAgAABAgQIECBAgAABAgQIECBAgAABAgQIELgUBAS0LoWjbB8JECBAgAABAgQIECBAgAABAgQIECBAgAABAgQIECBAgAABAgQIELggAoPUaz179mxpyOnp6VJdhQABAgQIECBAgAABAgQIECBAgAABAgQIECBAgAABAgQIECBAgAABAqkFqrmlvrziMHlA6+TJkyW7paWlUl2FAAECBAgQIECAAAECBAgQIECAAAECBAgQIECAAAECBAgQIECAAAECqQWquaW9e/emXkXUeF5xGMWmEwECBAgQIECAAAECBAgQIECAAAECBAgQIECAAAECBAgQIECAAAECBJoFBLSajSxBgAABAgQIECBAgAABAgQIECBAgAABAgQIECBAgAABAgQIECBAgACBKAEBrSg2nQgQIECAAAECBAgQIECAAAECBAgQIECAAAECBAgQIECAAAECBAgQINAsIKDVbGQJAgQIECBAgAABAgQIECBAgAABAgQIECBAgAABAgQIECBAgAABAgQIRAkIaEWx6USAAAECBAgQIECAAAECBAgQIECAAAECBAgQIECAAAECBAgQIECAAIFmAQGtZiNLECBAgAABAgQIECBAgAABAgQIECBAgAABAgQIECBAgAABAgQIECBAIEpgENVrRKfp6ekRc80iQIAAAQIECBAgQIAAAQIECBAgQIAAAQIECBAgQIAAAQIECBAgQIBAeoG+5paSB7Tm5+fT6xmRAAECBAgQIECAAAECBAgQIECAAAECBAgQIECAAAECBAgQIECAAAECIwT6mlvyisMRB80sAgQIECBAgAABAgQIECBAgAABAgQIECBAgAABAgQIECBAgAABAgQIjCMgoDWOnr4ECBAgQIAAAQIECBAgQIAAAQIECBAgQIAAAQIECBAgQIAAAQIECBAYIZD8FYdnzpwprW5mZqZUVyFAgAABAgQIECBAgAABAgQIECBAgAABAgQIECBAgAABAgQIECBAgEBqgWpuaTgcpl5F1HjJA1orKyulDRHQKnGoECBAgAABAgQIECBAgAABAgQIECBAgAABAgQIECBAgAABAgQIECDQgUA1t7Rv374O1tJ+SK84bG+mBwECBAgQIECAAAECBAgQIECAAAECBAgQIECAAAECBAgQIECAAAECBLYkIKC1JSYLESBAgAABAgQIECBAgAABAgQIECBAgAABAgQIECBAgAABAgQIECBAoL2AgFZ7Mz0IECBAgAABAgQIECBAgAABAgQIECBAgAABAgQIECBAgAABAgQIECCwJQEBrS0xWYgAAQIECBAgQIAAAQIECBAgQIAAAQIECBAgQIAAAQIECBAgQIAAAQLtBQS02pvpQYAAAQIECBAgQIAAAQIECBAgQIAAAQIECBAgQIAAAX+sSQkAADzlSURBVAIECBAgQIAAgS0JCGhticlCBAgQIECAAAECBAgQIECAAAECBAgQIECAAAECBAgQIECAAAECBAgQaC8waN9ldI+ZmZnRC5hLgAABAgQIECBAgAABAgQIECBAgAABAgQIECBAgAABAgQIECBAgACBxAJ9zS0lD2jNzc0lpjMcAQIECBAgQIAAAQIECBAgQIAAAQIECBAgQIAAAQIECBAgQIAAAQIERgv0NbfkFYejj5u5BAgQIECAAAECBAgQIECAAAECBAgQIECAAAECBAgQIECAAAECBAgQiBYQ0Iqm05EAAQIECBAgQIAAAQIECBAgQIAAAQIECBAgQIAAAQIECBAgQIAAAQKjBZK/4vD06dOlNc7OzpbqKgQIECBAgAABAgQIECBAgAABAgQIECBAgAABAgQIECBAgAABAgQIEEgtUM0tDYfD1KuIGi95QOvUqVOlDRHQKnGoECBAgAABAgQIECBAgAABAgQIECBAgAABAgQIECBAgAABAgQIECDQgUA1t7R///4O1tJ+SK84bG+mBwECBAgQIECAAAECBAgQIECAAAECBAgQIECAAAECBAgQIECAAAECBLYkIKC1JSYLESBAgAABAgQIECBAgAABAgQIECBAgAABAgQIECBAgAABAgQIECBAoL2AgFZ7Mz0IECBAgAABAgQIECBAgAABAgQIECBAgAABAgQIECBAgAABAgQIECCwJQEBrS0xWYgAAQIECBAgQIAAAQIECBAgQIAAAQIECBAgQIAAAQIECBAgQIAAAQLtBQS02pvpQYAAAQIECBAgQIAAAQIECBAgQIAAAQIECBAgQIAAAQIECBAgQIAAgS0JCGhticlCBAgQIECAAAECBAgQIECAAAECBAgQIECAAAECBAgQIECAAAECBAgQaC8waN9ldI/Z2dnRC5hLgAABAgQIECBAgAABAgQIECBAgAABAgQIECBAgAABAgQIECBAgACBxAJ9zS0lD2jt2bMnMZ3hCBAgQIAAAQIECBAgQIAAAQIECBAgQIAAAQIECBAgQIAAAQIECBAgMFqgr7klrzgcfdzMJUCAAAECBAgQIECAAAECBAgQIECAAAECBAgQIECAAAECBAgQIECAQLSAgFY0nY4ECBAgQIAAAQIECBAgQIAAAQIECBAgQIAAAQIECBAgQIAAAQIECBAYLZD8FYenTp0qrbGvfzqstJEqBAgQIECAAAECBAgQIECAAAECBAgQIECAAAECBAgQIECAAAECBAhc1ALV3NLBgwd7sT/JA1qnT58u7ZiAVolDhQABAgQIECBAgAABAgQIECBAgAABAgQIECBAgAABAgQIECBAgACBDgSquaW+BLS84rCDg21IAgQIECBAgAABAgQIECBAgAABAgQIECBAgAABAgQIECBAgAABAgQIBAEBLecBAQIECBAgQIAAAQIECBAgQIAAAQIECBAgQIAAAQIECBAgQIAAAQIEOhIQ0OoI1rAECBAgQIAAAQIECBAgQIAAAQIECBAgQIAAAQIECBAgQIAAAQIECBAQ0HIOECBAgAABAgQIECBAgAABAgQIECBAgAABAgQIECBAgAABAgQIECBAoCMBAa2OYA1LgAABAgQIECBAgAABAgQIECBAgAABAgQIECBAgAABAgQIECBAgAABAS3nAAECBAgQIECAAAECBAgQIECAAAECBAgQIECAAAECBAgQIECAAAECBDoSGKQed8+ePamHNB4BAgQIECBAgAABAgQIECBAgAABAgQIECBAgAABAgQIECBAgAABAgRGCvQ1t5Q8oDU7OzsSwkwCBAgQIECAAAECBAgQIECAAAECBAgQIECAAAECBAgQIECAAAECBAikFuhrbskrDlMfaeMRIECAAAECBAgQIECAAAECBAgQIECAAAECBAgQIECAAAECBAgQIEDg/wQEtJwKBAgQIECAAAECBAgQIECAAAECBAgQIECAAAECBAgQIECAAAECBAgQ6Egg+SsOV1ZWSps6NzdXqqsQIECAAAECBAgQIECAAAECBAgQIECAAAECBAgQIECAAAECBAgQIEAgtUA1t3To0KHUq4gaL3lA68yZM6UNEdAqcagQIECAAAECBAgQIECAAAECBAgQIECAAAECBAgQIECAAAECBAgQINCBQDW31MEqoob0isMoNp0IECBAgAABAgQIECBAgAABAgQIECBAgAABAgQIECBAgAABAgQIECDQLCCg1WxkCQIECBAgQIAAAQIECBAgQIAAAQIECBAgQIAAAQIECBAgQIAAAQIECEQJCGhFselEgAABAgQIECBAgAABAgQIECBAgAABAgQIECBAgAABAgQIECBAgACBZgEBrWYjSxAgQIAAAQIECBAgQIAAAQIECBAgQIAAAQIECBAgQIAAAQIECBAgQCBKQEArik0nAgQIECBAgAABAgQIECBAgAABAgQIECBAgAABAgQIECBAgAABAgQINAsIaDUbWYIAAQIECBAgQIAAAQIECBAgQIAAAQIECBAgQIAAAQIECBAgQIAAAQJRAoOoXiM6zc3NjZhrFgECBAgQIECAAAECBAgQIECAAAECBAgQIECAAAECBAgQIECAAAECBNIL9DW3lDygNTMzk17PiAQIECBAgAABAgQIECBAgAABAgQIECBAgAABAgQIECBAgAABAgQIEBgh0NfcklccjjhoZhEgQIAAAQIECBAgQIAAAQIECBAgQIAAAQIECBAgQIAAAQIECBAgQGAcAQGtcfT0JUCAAAECBAgQIECAAAECBAgQIECAAAECBAgQIECAAAECBAgQIECAwAiB5K84PHnyZGl18/PzpboKAQIECBAgQIAAAQIECBAgQIAAAQIECBAgQIAAAQIECBAgQIAAAQIEUgtUc0uHDx9OvYqo8ZIHtM6ePRu1IToRIECAAAECBAgQIECAAAECBAgQIECAAAECBAgQIECAAAECBAgQIEAgVqCvuSWvOIw9ovoRIECAAAECBAgQIECAAAECBAgQIECAAAECBAgQIECAAAECBAgQIECgQUBAqwHIbAIECBAgQIAAAQIECBAgQIAAAQIECBAgQIAAAQIECBAgQIAAAQIECMQKCGjFyulHgAABAgQIECBAgAABAgQIECBAgAABAgQIECBAgAABAgQIECBAgACBBgEBrQYgswkQIECAAAECBAgQIECAAAECBAgQIECAAAECBAgQIECAAAECBAgQIBArIKAVK6cfAQIECBAgQIAAAQIECBAgQIAAAQIECBAgQIAAAQIECBAgQIAAAQIEGgQEtBqAzCZAgAABAgQIECBAgAABAgQIECBAgAABAgQIECBAgAABAgQIECBAgECswCC2Y12/+fn5ulnaCRAgQIAAAQIECBAgQIAAAQIECBAgQIAAAQIECBAgQIAAAQIECBAg0IlAX3NLyQNa09PTnQAalAABAgQIECBAgAABAgQIECBAgAABAgQIECBAgAABAgQIECBAgAABAnUCfc0tecVh3RHTToAAAQIECBAgQIAAAQIECBAgQIAAAQIECBAgQIAAAQIECBAgQIAAgTEFBLTGBNSdAAECBAgQIECAAAECBAgQIECAAAECBAgQIECAAAECBAgQIECAAAECdQLJX3F44sSJ0roOHDhQqqsQIECAAAECBAgQIECAAAECBAgQIECAAAECBAgQIECAAAECBAgQIEAgtcD5uaWJiYns0UcfTb2KqPGSB7TW1taiNkQnAgQIECBAgAABAgQIECBAgAABAgQIECBAgAABAgQIECBAgAABAgQIxAr0NbfkFYexR1Q/AgQIECBAgAABAgQIECBAgAABAgQIECBAgAABAgQIECBAgAABAgQINAgIaDUAmU2AAAECBAgQIECAAAECBAgQIECAAAECBAgQIECAAAECBAgQIECAAIFYAQGtWDn9CBAgQIAAAQIECBAgQIAAAQIECBAgQIAAAQIECBAgQIAAAQIECBAg0CAgoNUAZDYBAgQIECBAgAABAgQIECBAgAABAgQIECBAgAABAgQIECBAgAABAgRiBQS0YuX0I0CAAAECBAgQIECAAAECBAgQIECAAAECBAgQIECAAAECBAgQIECAQIOAgFYDkNkECBAgQIAAAQIECBAgQIAAAQIECBAgQIAAAQIECBAgQIAAAQIECBCIFRjEdqzrd+DAgbpZ2gkQIECAAAECBAgQIECAAAECBAgQIECAAAECBAgQIECAAAECBAgQINCJQF9zS8kDWlNTU50AGpQAAQIECBAgQIAAAQIECBAgQIAAAQIECBAgQIAAAQIECBAgQIAAAQJ1An3NLXnFYd0R006AAAECBAgQIECAAAECBAgQIECAAAECBAgQIECAAAECBAgQIECAAIExBQS0xgTUnQABAgQIECBAgAABAgQIECBAgAABAgQIECBAgAABAgQIECBAgAABAnUCyV9xePz48dK6FhYWSnUVAgQIECBAgAABAgQIECBAgAABAgQIECBAgAABAgQIECBAgAABAgQIpBao5pYef/zx1KuIGi95QGt9fT1qQ3QiQIAAAQIECBAgQIAAAQIECBAgQIAAAQIECBAgQIAAAQIECBAgQIBArEBfc0tecRh7RPUjQIAAAQIECBAgQIAAAQIECBAgQIAAAQIECBAgQIAAAQIECBAgQIBAg0Dyv6DVsD6zCVzUArf+z39f1Ntv4wkQIECAAAECBAgQIECAAAECBAgQIECAAAECBAgQIECAAAECBLZXwF/Q2l5vayNAgAABAgQIECBAgAABAgQIECBAgAABAgQIECBAgAABAgQIECBA4BISENC6hA62XSVAgAABAgQIECBAgAABAgQIECBAgAABAgQIECBAgAABAgQIECBAYHsFBLS219vaCBAgQIAAAQIECBAgQIAAAQIECBAgQIAAAQIECBAgQIAAAQIECBC4hAQEtC6hg21XCRAgQIAAAQIECBAgQIAAAQIECBAgQIAAAQIECBAgQIAAAQIECBDYXoFB6tUtLCykHtJ4BAgQIECAAAECBAgQIECAAAECBAgQIECAAAECBAgQIECAAAECBAgQGCnQ19xS8oDW5OTkSAgzCRAgQIAAAQIECBAgQIAAAQIECBAgQIAAAQIECBAgQIAAAQIECBAgkFqgr7klrzhMfaSNR4AAAQIECBAgQIAAAQIECBAgQIAAAQIECBAgQIAAAQIECBAgQIAAgf8TENByKhAgQIAAAQIECBAgQIAAAQIECBAgQIAAAQIECBAgQIAAAQIECBAgQKAjgeSvODx27FhpUxcXF0t1FQIECBAgQIAAAQIECBAgQIAAAQIECBAgQIAAAQIECBAgQIAAAQIECKQWqOaWjhw5knoVUeMlD2htbGxEbYhOBAgQIECAAAECBAgQIECAAAECBAgQIECAAAECBAgQIECAAAECBAgQiBXoa27JKw5jj6h+BAgQIECAAAECBAgQIECAAAECBAgQIECAAAECBAgQIECAAAECBAgQaBAQ0GoAMpsAAQIECBAgQIAAAQIECBAgQIAAAQIECBAgQIAAAQIECBAgQIAAAQKxAgJasXL6ESBAgAABAgQIECBAgAABAgQIECBAgAABAgQIECBAgAABAgQIECBAoEFAQKsByGwCBAgQIECAAAECBAgQIECAAAECBAgQIECAAAECBAgQIECAAAECBAjECghoxcrpR4AAAQIECBAgQIAAAQIECBAgQIAAAQIECBAgQIAAAQIECBAgQIAAgQYBAa0GILMJECBAgAABAgQIECBAgAABAgQIECBAgAABAgQIECBAgAABAgQIECAQKzCI7VjXb3FxsW6WdgIECBAgQIAAAQIECBAgQIAAAQIECBAgQIAAAQIECBAgQIAAAQIECHQi0NfcUvKA1mCQfMhODohBCRAgQIAAAQIECBAgQIAAAQIECBAgQIAAAQIECBAgQIAAAQIECBDYOQJ9zS15xeHOOcfsCQECBAgQIECAAAECBAgQIECAAAECBAgQIECAAAECBAgQIECAAAECPRMQ0OrZAbE5BAgQIECAAAECBAgQIECAAAECBAgQIECAAAECBAgQIECAAAECBAjsHIHk7yM8evRoSWdpaalUVyFAgAABAgQIECBAgAABAgQIECBAgAABAgQIECBAgAABAgQIECBAgEBqgWpuaXl5OfUqosbzF7Si2HQiQIAAAQIECBAgQIAAAQIECBAgQIAAAQIECBAgQIAAAQIECBAgQIBAs4CAVrORJQgQIECAAAECBAgQIECAAAECBAgQIECAAAECBAgQIECAAAECBAgQIBAlIKAVxaYTAQIECBAgQIAAAQIECBAgQIAAAQIECBAgQIAAAQIECBAgQIAAAQIEmgUEtJqNLEGAAAECBAgQIECAAAECBAgQIECAAAECBAgQIECAAAECBAgQIECAAIEoAQGtKDadCBAgQIAAAQIECBAgQIAAAQIECBAgQIAAAQIECBAgQIAAAQIECBAg0CwgoNVsZAkCBAgQIECAAAECBAgQIECAAAECBAgQIECAAAECBAgQIECAAAECBAhECQhoRbHpRIAAAQIECBAgQIAAAQIECBAgQIAAAQIECBAgQIAAAQIECBAgQIAAgWaBQfMi7ZZYWlpq18HSBAgQIECAAAECBAgQIECAAAECBAgQIECAAAECBAgQIECAAAECBAgQGFOgr7klf0FrzAOrOwECBAgQIECAAAECBAgQIECAAAECBAgQIECAAAECBAgQIECAAAECBOoEBLTqZLQTIECAAAECBAgQIECAAAECBAgQIECAAAECBAgQIECAAAECBAgQIEBgTIHkrzjc2NgobdJgkHwVpfFVCBAgQIAAAQIECBAgQIAAAQIECBAgQIAAAQIECBAgQIAAAQIECBAgUM0t9UUkeXrq2LFjpX3r67sdSxupQoAAAQIECBAgQIAAAQIECBAgQIAAAQIECBAgQIAAAQIECBAgQIDARS1QzS0tLy/3Yn+84rAXh8FGECBAgAABAgQIECBAgAABAgQIECBAgAABAgQIECBAgAABAgQIECCwEwUEtHbiUbVPBAgQIECAAAECBAgQIECAAAECBAgQIECAAAECBAgQIECAAAECBAj0QkBAqxeHwUYQIECAAAECBAgQIECAAAECBAgQIECAAAECBAgQIECAAAECBAgQILATBQS0duJRtU8ECBAgQIAAAQIECBAgQIAAAQIECBAgQIAAAQIECBAgQIAAAQIECPRCQECrF4fBRhAgQIAAAQIECBAgQIAAAQIECBAgQIAAAQIECBAgQIAAAQIECBAgsBMFBLR24lG1TwQIECBAgAABAgQIECBAgAABAgQIECBAgAABAgQIECBAgAABAgQI9EJgkHorBoPkQ6beROMRIECAAAECBAgQIECAAAECBAgQIECAAAECBAgQIECAAAECBAgQILDDBPqaW0qeplpcXNxhh87uECBAgAABAgQIECBAgAABAgQIECBAgAABAgQIECBAgAABAgQIECDQd4G+5pa84rDvZ47tI0CAAAECBAgQIECAAAECBAgQIECAAAECBAgQIECAAAECBAgQIEDgohUQ0LpoD50NJ0CAAAECBAgQIECAAAECBAgQIECAAAECBAgQIECAAAECBAgQIECg7wLJX3G4vr5e2ufJyclSXYUAAQIECBAgQIAAAQIECBAgQIAAAQIECBAgQIAAAQIECBAgQIAAAQKpBaq5peFwmHoVUeMlD2gdP368tCFLS0ulugoBAgQIECBAgAABAgQIECBAgAABAgQIECBAgAABAgQIECBAgAABAgRSC1RzS8vLy6lXETWeVxxGselEgAABAgQIECBAgAABAgQIECBAgAABAgQIECBAgAABAgQIECBAgACBZgEBrWYjSxAgQIAAAQIECBAgQIAAAQIECBAgQIAAAQIECBAgQIAAAQIECBAgQCBKQEArik0nAgQIECBAgAABAgQIECBAgAABAgQIECBAgAABAgQIECBAgAABAgQINAsIaDUbWYIAAQIECBAgQIAAAQIECBAgQIAAAQIECBAgQIAAAQIECBAgQIAAAQJRAgJaUWw6ESBAgAABAgQIECBAgAABAgQIECBAgAABAgQIECBAgAABAgQIECBAoFlAQKvZyBIECBAgQIAAAQIECBAgQIAAAQIECBAgQIAAAQIECBAgQIAAAQIECBCIEhhE9RrRaXJycsRcswgQIECAAAECBAgQIECAAAECBAgQIECAAAECBAgQIECAAAECBAgQIJBe4Pzc0sTERPoVRI6YPKC1sLAQuSm6ESBAgAABAgQIECBAgAABAgQIECBAgAABAgQIECBAgAABAgQIECBAIE6gr7klrziMO556ESBAgAABAgQIECBAgAABAgQIECBAgAABAgQIECBAgAABAgQIECBAoFFAQKuRyAIECBAgQIAAAQIECBAgQIAAAQIECBAgQIAAAQIECBAgQIAAAQIECBCIE0j+isO1tbXSlkxNTZXqKgQIECBAgAABAgQIECBAgAABAgQIECBAgAABAgQIECBAgAABAgQIEEgtUM0tDYfD1KuIGi95QOvEiROlDVlaWirVVQgQIECAAAECBAgQIECAAAECBAgQIECAAAECBAgQIECAAAECBAgQIJBaoJpb2r17d+pVRI3nFYdRbDoRIECAAAECBAgQIECAAAECBAgQIECAAAECBAgQIECAAAECBAgQIECgWUBAq9nIEgQIECBAgAABAgQIECBAgAABAgQIECBAgAABAgQIECBAgAABAgQIEIgSENCKYtOJAAECBAgQIECAAAECBAgQIECAAAECBAgQIECAAAECBAgQIECAAAECzQICWs1GliBAgAABAgQIECBAgAABAgQIECBAgAABAgQIECBAgAABAgQIECBAgECUgIBWFJtOBAgQIECAAAECBAgQIECAAAECBAgQIECAAAECBAgQIECAAAECBAgQaBYQ0Go2sgQBAgQIECBAgAABAgQIECBAgAABAgQIECBAgAABAgQIECBAgAABAgSiBAZRvUZ0mpqaGjHXLAIECBAgQIAAAQIECBAgQIAAAQIECBAgQIAAAQIECBAgQIAAAQIECKQXOD+3NDExkX4FkSMmD2gdOHAgclN0I0CAAAECBAgQIECAAAECBAgQIECAAAECBAgQIECAAAECBAgQIECAQJxAX3NLXnEYdzz1IkCAAAECBAgQIECAAAECBAgQIECAAAECBAgQIECAAAECBAgQIECAQKOAgFYjkQUIECBAgAABAgQIECBAgAABAgQIECBAgAABAgQIECBAgAABAgQIECAQJ5D8FYdnz54tbcn09HSprkKAAAECBAgQIECAAAECBAgQIECAAAECBAgQIECAAAECBAgQIECAAIHUAtXc0nA4TL2KqPGSB7ROnjxZ2pClpaVSXYUAAQIECBAgQIAAAQIECBAgQIAAAQIECBAgQIAAAQIECBAgQIAAAQKpBaq5pb1796ZeRdR4XnEYxaYTAQIECBAgQIAAAQIECBAgQIAAAQIECBAgQIAAAQIECBAgQIAAAQIEmgUEtJqNLEGAAAECBAgQIECAAAECBAgQIECAAAECBAgQIECAAAECBAgQIECAAIEoAQGtKDadCBAgQIAAAQIECBAgQIAAAQIECBAgQIAAAQIECBAgQIAAAQIECBAg0CwgoNVsZAkCBAgQIECAAAECBAgQIECAAAECBAgQIECAAAECBAgQIECAAAECBAhECQhoRbHpRIAAAQIECBAgQIAAAQIECBAgQIAAAQIECBAgQIAAAQIECBAgQIAAgWYBAa1mI0sQIECAAAECBAgQIECAAAECBAgQIECAAAECBAgQIECAAAECBAgQIEAgSmAQ1WtEp+np6RFzzSJAgAABAgQIECBAgAABAgQIECBAgAABAgQIECBAgAABAgQIECBAgEB6gb7mlpIHtObn59PrGZEAAQIECBAgQIAAAQIECBAgQIAAAQIECBAgQIAAAQIECBAgQIAAAQIjBPqaW/KKwxEHzSwCBAgQIECAAAECBAgQIECAAAECBAgQIECAAAECBAgQIECAAAECBAiMIyCgNY6evgQIECBAgAABAgQIECBAgAABAgQIECBAgAABAgQIECBAgAABAgQIEBghkPwVh2fOnCmtbmZmplRXIUCAAAECBAgQIECAAAECBAgQIECAAAECBAgQIECAAAECBAgQIECAQGqBam5pOBymXkXUeMkDWisrK6UNEdAqcagQIECAAAECBAgQIECAAAECBAgQIECAAAECBAgQIECAAAECBAgQINCBQDW3tG/fvg7W0n5Irzhsb6YHAQIECBAgQIAAAQIECBAgQIAAAQIECBAgQIAAAQIECBAgQIAAAQIEtiQgoLUlJgsRIECAAAECBAgQIECAAAECBAgQIECAAAECBAgQIECAAAECBAgQIECgvYCAVnszPQgQIECAAAECBAgQIECAAAECBAgQIECAAAECBAgQIECAAAECBAgQILAlAQGtLTFZiAABAgQIECBAgAABAgQIECBAgAABAgQIECBAgAABAgQIECBAgAABAu0FBLTam+lBgAABAgQIECBAgAABAgQIECBAgAABAgQIECBAgAABAgQIECBAgACBLQkIaG2JyUIECBAgQIAAAQIECBAgQIAAAQIECBAgQIAAAQIECBAgQIAAAQIECBBoLzBo32V0j5mZmdELmEuAAAECBAgQIECAAAECBAgQIECAAAECBAgQIECAAAECBAgQIECAAIHEAn3NLSUPaM3NzSWmMxwBAgQIECBAgAABAgQIECBAgAABAgQIECBAgAABAgQIECBAgAABAgRGC/Q1tzRxbrOM3vR2c1dXV9t1sDQBAgQIECBAgAABAgQIECBAgAABAgQIECBAgAABAgQIECBAgAABAgQSCwyHw8Qjxg23K66bXgQIECBAgAABAgQIECBAgAABAgQIECBAgAABAgQIECBAgAABAgQIECDQJJD8FYenT58urXN2drZUVyFAgAABAgQIECBAgAABAgQIECBAgAABAgQIECBAgAABAgQIECBAgEBqgWpuqS9/QSt5QOvUqVMlOwGtEocKAQIECBAgQIAAAQIECBAgQIAAAQIECBAgQIAAAQIECBAgQIAAAQIdCFRzS/v37+9gLe2H9IrD9mZ6ECBAgAABAgQIECBAgAABAgQIECBAgAABAgQIECBAgAABAgQIECBAYEsCAlpbYrIQAQIECBAgQIAAAQIECBAgQIAAAQIECBAgQIAAAQIECBAgQIAAAQIE2gsIaLU304MAAQIECBAgQIAAAQIECBAgQIAAAQIECBAgQIAAAQIECBAgQIAAAQJbEhDQ2hKThQgQIECAAAECBAgQIECAAAECBAgQIECAAAECBAgQIECAAAECBAgQINBeQECrvZkeBAgQIECAAAECBAgQIECAAAECBAgQIECAAAECBAgQIECAAAECBAgQ2JKAgNaWmCxEgAABAgQIECBAgAABAgQIECBAgAABAgQIECBAgAABAgQIECBAgACB9gKD9l1G95idnR29gLkECBAgQIAAAQIECBAgQIAAAQIECBAgQIAAAQIECBAgQIAAAQIECBBILNDX3NLEuc2Scl9XV1dTDmcsAgQIECBAgAABAgQIECBAgAABAgQIECBAgAABAgQIECBAgAABAgQItBYYDoet+3TRwSsOu1A1JgECBAgQIECAAAECBAgQIECAAAECBAgQIECAAAECBAgQIECAAAECBDYFBLScBgQIECBAgAABAgQIECBAgAABAgQIECBAgAABAgQIECBAgAABAgQIEOhIYJB63FOnTpWG3LNnT6muQoAAAQIECBAgQIAAAQIECBAgQIAAAQIECBAgQIAAAQIECBAgQIAAgdQC1dzSwYMHU68iarzkAa3Tp0+XNkRAq8ShQoAAAQIECBAgQIAAAQIECBAgQIAAAQIECBAgQIAAAQIECBAgQIBABwLV3FJfAlpecdjBwTYkAQIECBAgQIAAAQIECBAgQIAAAQIECBAgQIAAAQIECBAgQIAAAQIEgoCAlvOAAAECBAgQIECAAAECBAgQIECAAAECBAgQIECAAAECBAgQIECAAAECHQkIaHUEa1gCBAgQIECAAAECBAgQIECAAAECBAgQIECAAAECBAgQIECAAAECBAgIaDkHCBAgQIAAAQIECBAgQIAAAQIECBAgQIAAAQIECBAgQIAAAQIECBAg0JGAgFZHsIYlQIAAAQIECBAgQIAAAQIECBAgQIAAAQIECBAgQIAAAQIECBAgQICAgJZzgAABAgQIECBAgAABAgQIECBAgAABAgQIECBAgAABAgQIECBAgAABAh0JDFKPu2fPntRDGo8AAQIECBAgQIAAAQIECBAgQIAAAQIECBAgQIAAAQIECBAgQIAAAQIjBfqaW5o4t1lGbnnLmaurqy17WJwAAQIECBAgQIAAAQIECBAgQIAAAQIECBAgQIAAAQIECBAgQIAAAQJpBYbDYdoBI0fzisNION0IECBAgAABAgQIECBAgAABAgQIECBAgAABAgQIECBAgAABAgQIECDQJCCg1SRkPgECBAgQIECAAAECBAgQIECAAAECBAgQIECAAAECBAgQIECAAAECBCIFBpH9arutrKyU5s3NzZXqKgQIECBAgAABAgQIECBAgAABAgQIECBAgAABAgQIECBAgAABAgQIEEgtUM0tHTp0KPUqosZLHtA6c+ZMaUMEtEocKgQIECBAgAABAgQIECBAgAABAgQIECBAgAABAgQIECBAgAABAgQIdCBQzS11sIqoIb3iMIpNJwIECBAgQIAAAQIECBAgQIAAAQIECBAgQIAAAQIECBAgQIAAAQIECDQLCGg1G1mCAAECBAgQIECAAAECBAgQIECAAAECBAgQIECAAAECBAgQIECAAAECUQICWlFsOhEgQIAAAQIECBAgQIAAAQIECBAgQIAAAQIECBAgQIAAAQIECBAgQKBZQECr2cgSBAgQIECAAAECBAgQIECAAAECBAgQIECAAAECBAgQIECAAAECBAgQiBIQ0Ipi04kAAQIECBAgQIAAAQIECBAgQIAAAQIECBAgQIAAAQIECBAgQIAAAQLNAgJazUaWIECAAAECBAgQIECAAAECBAgQIECAAAECBAgQIECAAAECBAgQIECAQJTAIKrXiE5zc3Mj5ppFgAABAgQIECBAgAABAgQIECBAgAABAgQIECBAgAABAgQIECBAgACB9AJ9zS1NnNssKXd3dXU15XDGIkCAAAECBAgQIECAAAECBAgQIECAAAECBAgQIECAAAECBAgQIECAQGuB4XDYuk8XHbzisAtVYxIgQIAAAQIECBAgQIAAAQIECBAgQIAAAQIECBAgQIAAAQIECBAgQGBTQEDLaUCAAAECBAgQIECAAAECBAgQIECAAAECBAgQIECAAAECBAgQIECAAIGOBAapxz158mRpyPn5+VJdhQABAgQIECBAgAABAgQIECBAgAABAgQIECBAgAABAgQIECBAgAABAqkFqrmlw4cPp15F1HjJA1pnz56N2hCdCBAgQIAAAQIECBAgQIAAAQIECBAgQIAAAQIECBAgQIAAAQIECBAgECvQ19ySVxzGHlH9CBAgQIAAAQIECBAgQIAAAQIECBAgQIAAAQIECBAgQIAAAQIECBAg0CAgoNUAZDYBAgQIECBAgAABAgQIECBAgAABAgQIECBAgAABAgQIECBAgAABAgRiBQS0YuX0I0CAAAECBAgQIECAAAECBAgQIECAAAECBAgQIECAAAECBAgQIECAQIOAgFYDkNkECBAgQIAAAQIECBAgQIAAAQIECBAgQIAAAQIECBAgQIAAAQIECBCIFRDQipXTjwABAgQIECBAgAABAgQIECBAgAABAgQIECBAgAABAgQIECBAgAABAg0CAloNQGYTIECAAAECBAgQIECAAAECBAgQIECAAAECBAgQIECAAAECBAgQIEAgVmAQ27Gu3/z8fN0s7QQIECBAgAABAgQIECBAgAABAgQIECBAgAABAgQIECBAgAABAgQIEOhEoK+5pYlzmyXlHq+urqYczlgECBAgQIAAAQIECBAgQIAAAQIECBAgQIAAAQIECBAgQIAAAQIECBBoLTAcDlv36aKDVxx2oWpMAgQIECBAgAABAgQIECBAgAABAgQIECBAgAABAgQIECBAgAABAgQIbAoIaDkNCBAgQIAAAQIECBAgQIAAAQIECBAgQIAAAQIECBAgQIAAAQIECBAg0JHAIPW4J06cKA154MCBUl2FAAECBAgQIECAAAECBAgQIECAAAECBAgQIECAAAECBAgQIECAAAECqQWquaXHHnss9Sqixkse0FpbW4vaEJ0IECBAgAABAgQIECBAgAABAgQIECBAgAABAgQIECBAgAABAgQIECAQK9DX3JJXHMYeUf0IECBAgAABAgQIECBAgAABAgQIECBAgAABAgQIECBAgAABAgQIECDQICCg1QBkNgECBAgQIECAAAECBAgQIECAAAECBAgQIECAAAECBAgQIECAAAECBGIFBLRi5fQjQIAAAQIECBAgQIAAAQIECBAgQIAAAQIECBAgQIAAAQIECBAgQIBAg4CAVgOQ2QQIECBAgAABAgQIECBAgAABAgQIECBAgAABAgQIECBAgAABAgQIEIgVENCKldOPAAECBAgQIECAAAECBAgQIECAAAECBAgQIECAAAECBAgQIECAAAECDQICWg1AZhMgQIAAAQIECBAgQIAAAQIECBAgQIAAAQIECBAgQIAAAQIECBAgQCBWYOLcZont/J/6vf/++6XmqampUl2FAAECBAgQIECAAAECBAgQIECAAAECBAgQIECAAAECBAgQIECAAAECqQXW1tZKQ+7evbtUv1CVQeoVC2SlFjUeAQIECBAgQIAAAQIECBAgQIAAAQIECBAgQIAAAQIECBAgQIAAAQJNAn3NLXnFYdORM58AAQIECBAgQIAAAQIECBAgQIAAAQIECBAgQIAAAQIECBAgQIAAAQKRAgJakXC6ESBAgAABAgQIECBAgAABAgQIECBAgAABAgQIECBAgAABAgQIECBAoEkg+SsOjx8/XlrnwsJCqa5CgAABAgQIECBAgAABAgQIECBAgAABAgQIECBAgAABAgQIECBAgACB1ALV3NLjjz+eehVR4yUPaK2vr0dtiE4ECBAgQIAAAQIECBAgQIAAAQIECBAgQIAAAQIECBAgQIAAAQIECBCIFehrbskrDmOPqH4ECBAgQIAAAQIECBAgQIAAAQIECBAgQIAAAQIECBAgQIAAAQIECBBoEBDQagAymwABAgQIECBAgAABAgQIECBAgAABAgQIECBAgAABAgQIECBAgAABArECAlqxcvoRIECAAAECBAgQIECAAAECBAgQIECAAAECBAgQIECAAAECBAgQIECgQUBAqwHIbAIECBAgQIAAAQIECBAgQIAAAQIECBAgQIAAAQIECBAgQIAAAQIECMQKCGjFyulHgAABAgQIECBAgAABAgQIECBAgAABAgQIECBAgAABAgQIECBAgACBBgEBrQYgswkQIECAAAECBAgQIECAAAECBAgQIECAAAECBAgQIECAAAECBAgQIBArMHFus8R2/k/9Pvroo1Lz5ORkqa5CgAABAgQIECBAgAABAgQIECBAgAABAgQIECBAgAABAgQIECBAgACB1ALr6+ulIW+++eZS/UJVBqlXLJCVWtR4BAgQIECAAAECBAgQIECAAAECBAgQIECAAAECBAgQIECAAAECBAg0CfQ1t+QVh01HznwCBAgQIECAAAECBAgQIECAAAECBAgQIECAAAECBAgQIECAAAECBAhECghoRcLpRoAAAQIECBAgQIAAAQIECBAgQIAAAQIECBAgQIAAAQIECBAgQIAAgSaB5K84PHbsWGmdi4uLpboKAQIECBAgQIAAAQIECBAgQIAAAQIECBAgQIAAAQIECBAgQIAAAQIEUgtUc0tHjhxJvYqo8ZIHtDY2NqI2RCcCBAgQIECAAAECBAgQIECAAAECBAgQIECAAAECBAgQIECAAAECBAjECvQ1t+QVh7FHVD8CBAgQIECAAAECBAgQIECAAAECBAgQIECAAAECBAgQIECAAAECBAg0CAhoNQCZTYAAAQIECBAgQIAAAQIECBAgQIAAAQIECBAgQIAAAQIECBAgQIAAgVgBAa1YOf0IECBAgAABAgQIECBAgAABAgQIECBAgAABAgQIECBAgAABAgQIECDQICCg1QBkNgECBAgQIECAAAECBAgQIECAAAECBAgQIECAAAECBAgQIECAAAECBGIFBLRi5fQjQIAAAQIECBAgQIAAAQIECBAgQIAAAQIECBAgQIAAAQIECBAgQIBAg4CAVgOQ2QQIECBAgAABAgQIECBAgAABAgQIECBAgAABAgQIECBAgAABAgQIEIgVmDi3WWI7/6d+n376aal5MBiU6ioECBAgQIAAAQIECBAgQIAAAQIECBAgQIAAAQIECBAgQIAAAQIECBBILbCxsVEa8oYbbijVL1QleXpKIOtCHUrrJUCAAAECBAgQIECAAAECBAgQIECAAAECBAgQIECAAAECBAgQIHDpCvQ1t+QVh5fuOWnPCRAgQIAAAQIECBAgQIAAAQIECBAgQIAAAQIECBAgQIAAAQIECBDoWEBAq2NgwxMgQIAAAQIECBAgQIAAAQIECBAgQIAAAQIECBAgQIAAAQIECBAgcOkKJH/F4dGjR0uaS0tLpboKAQIECBAgQIAAAQIECBAgQIAAAQIECBAgQIAAAQIECBAgQIAAAQIEUgtUc0vLy8upVxE1nr+gFcWmEwECBAgQIECAAAECBAgQIECAAAECBAgQIECAAAECBAgQIECAAAECBJoFBLSajSxBgAABAgQIECBAgAABAgQIECBAgAABAgQIECBAgAABAgQIECBAgACBKAEBrSg2nQgQIECAAAECBAgQIECAAAECBAgQIECAAAECBAgQIECAAAECBAgQINAsMGheZLwlqu92XFpaKgb84YcfsqeffrqoVyd27dqVPfzww0Xz999/nz3zzDNFvTpx2WWXZYcPHy6av/vuu+zZZ58t6tWJyy+/PHvooYeK5m+++SZ7/vnni3p14sorr8wOHTpUNK+vr2fHjx8v6tWJycnJbGFhoWj+6quvshdffLGoVyeuvvrq7P777y+a19bWshMnThT16sTU1FR24MCBovmLL77IXn755aJenbj22muz++67r2j+/PPPs1dffbWoVyeuu+66bP/+/UXzZ2fPZq+dPFnUqxPT09PZ/Px80fzpp59mr7/+elGvTtxwww3Z3XffXTR//PHH2ZtvvlnUqxM33XRTdtdddxXNZ86cyVZWVop6dWJmZiabm5srmj/88MPs7bffLurViVtuuSXbu3dv0Xz69Ons1KlTRb06MTs7m+3Zs6dofv/997N33323qFcnbrvttiz8l5ewbOhTV26//fZs9+7dxex33nkn++CDD4p6deKOO+7Ibr311qI57GvY57oS9jXsc16CZTCtK8EymObljTfeyD755JO8+pN/9+3bl914441FezgXwjlRV8K5EM6JvLz22mvZZ599lld/8u8999yTXX/99UX7K6+8kq2urhb16sS9996bDYfDojn8rISfmboSflbCz0xeXnrppezLL7/Mqz/59+DBg9k111xTtL/wwgvZ119/XdSrEw888EB21VVXFc3hsyR8ptSV8FkSPlPy8txzz2XffvttXv3Jvw8++GB2xRVXFO3Hjh3LNjY2inp1YnFxMRsMfrwkhM/a8JlbV8JnbfjMzctTTz2VnTt3Lq/+5N9HHnkkm5iY+Hd7WC4sP6qMc60I+xn2t66E/Qz7m5fgGDzryrjXinAehPOhroTzIJwPeen6WhF+TsLPS10JPyfh5yUvba8VZzevFSdbXCvC50j4PKkr4XMkfJ7kpe214qOPPsreeuutvPtP/r355puzO++8s2gPn7Ph87auhM/Z8Hmbl7bXivfeey8L/9WV6rUiXIfCOupKuA6F61Fe2l4rgk0wqivBJhjlJVynwzGoK+E6Ha7XeWl7rQjnTjiH6kq4zwj3G3kJ9zHhHK0r4T4m3M/kpe21ItyHhfuxuhLuw8L9WF7CfV74Ga4r4T4v3O/lpe21ItynhvvVuhLuU8P9al66vlaE+/hwP19Xwn18uJ/PS8prRbimhGtLXto+J6S+VoRrbrj25qXtc0Lba0W4Jwn3JnUl3JOEe5O8tH1OaHutCPds4d6troR7tnDvlpe2zwltrxVdPye0vVY0PSeEe/5w75+XpmtF9Tmh7bWi7XNC19eKts8JTdeKezavFdePca1o+5xw4sRLm9eK+ueEca8VbZ8T2l4rwncm4buTuhK+Mwn3w3lp+5zQ9lpR/Q4pX2/+7zjPCW2vFb5TytX/999xv1Nq+5zQ9lrR9jmh6VpRfU7wnVL5fPCdku+Uzj8jfKfkO6X8fPCdku+U8nMh/Os7pYv7O6Wm54Rxf/+Q+jmhze8ffKfkO6XzP6uqv39oek4Y93fPvlM6X3/8a0Xq75TG/f1D+++Uur1W+E6pfL71pfbjb0z6skW2gwABAgQIECBAgAABAgQIECBAgAABAgQIECDQQiD/nwNbdOl00b5tT6c7a3ACBAgQIECAAAECBBoFBLQaiSxAgAABAgQIECBAgAABAgS2R2DUXyXdni0or6Vv21Peuv9Q2/wLe9tbtnt927t31kZgxwqM+AvQO3af7RgBAgQIECBAgAABAgQIECBwQQUEtC4ov5UTIECAAAECBAgQ6Eagb6GKvm1PN+pGJUCAAAECBAgQIECAAAECBAgQIECAAAECBAj8VGBi8xcl537arIUAAQIECBAgQIAAAQIECBAgQIAAAQIECBAgQIAAAQIECBAgQIAAAQIExhXwF7TGFdSfAAECBAgQIECAAAECBAgQIECAAAECBAgQIECAAAECBAgQIECAAAECNQICWjUwmgkQIECAAAECBAgQIECAAAECBAgQIECAAAECBAgQIECAAAECBAgQIDCugIDWuIL6EyBAgAABAgQIECBAgAABAgQIECBAgAABAgQIECBAgAABAgQIECBAoEZAQKsGRjMBAgQIECBAgAABAgQIECBAgAABAgQIECBAgAABAgQIECBAgAABAgTGFRDQGldQfwIECBAgQIAAAQIECBAgQIAAAQIECBAgQIAAAQIECBAgQIAAAQIECNQICGjVwGgmQIAAAQIECBAgQIAAAQIECBAgQIAAAQIECBAgQIAAAQIECBAgQIDAuAICWuMK6k+AAAECBAgQIECAAAECBAgQIECAAAECBAgQIECAAAECBAgQIECAAIEaAQGtGhjNBAgQIECAAAECBAgQIECAAAECBAgQIECAAAECBAgQIECAAAECBAgQGFdAQGtcQf0JECBAgAABAgQIECBAgAABAgQIECBAgAABAgQIECBAgAABAgQIECBQIyCgVQOjmQABAgQIECBAgAABAgQIECBAgAABAgQIECBAgAABAgQIECBAgAABAuMKCGiNK6g/AQIECBAgQIAAAQIECBAgQIAAAQIECBAgQIAAAQIECBAgQIAAAQIEagQEtGpgNBMgQIAAAQIECBAgQIAAAQIECBAgQIAAAQIECBAgQIAAAQIECBAgQGBcAQGtcQX1J0CAAAECBAgQIECAAAECBAgQIECAAAECBAgQIECAAAECBAgQIECAQI2AgFYNjGYCBAgQIECAAAECBAgQIECAAAECBAgQIECAAAECBAgQIECAAAECBAiMKyCgNa6g/gQIECBAgAABAgQIECBAgAABAgQIECBAgAABAgQIECBAgAABAgQIEKgRENCqgdFMgAABAgQIECBAgAABAgQIECBAgAABAgQIECBAgAABAgQIECBAgACBcQUEtMYV1J8AAQIECBAgQIAAAQIECBAgQIAAAQIECBAgQIAAAQIECBAgQIAAAQI1AgJaNTCaCRAgQIAAAQIECBAgQIAAAQIECBAgQIAAAQIECBAgQIAAAQIECBAgMK6AgNa4gvoTIECAAAECBAgQIECAAAECBAgQIECAAAECBAgQIECAAAECBAgQIECgRkBAqwZGMwECBAgQIECAAAECBAgQIECAAAECBAgQIECAAAECBAgQIECAAAECBMYVENAaV1B/AgQIECBAgAABAgQIECBAgAABAgQIECBAgAABAgQIECBAgAABAgQI1AgIaNXAaCZAgAABAgQIECBAgAABAgQIECBAgAABAgQIECBAgAABAgQIECBAgMC4AgJa4wrqT4AAAQIECBAgQIAAAQIECBAgQIAAAQIECBAgQIAAAQIECBAgQIAAgRoBAa0aGM0ECBAgQIAAAQIECBAgQIAAAQIECBAgQIAAAQIECBAgQIAAAQIECBAYV0BAa1xB/QkQIECAAAECBAgQIECAAAECBAgQIECAAAECBAgQIECAAAECBAgQIFAjIKBVA6OZAAECBAgQIECAAAECBAgQIECAAAECBAgQIECAAAECBAgQIECAAAEC4woIaI0rqD8BAgQIECBAgAABAgQIECBAgAABAgQIECBAgAABAgQIECBAgAABAgRqBAS0amA0EyBAgAABAgQIECBAgAABAgQIECBAgAABAgQIECBAgAABAgQIECBAYFwBAa1xBfUnQIAAAQIECBAgQIAAAQIECBAgQIAAAQIECBAgQIAAAQIECBAgQIBAjcD/B8kPAjl6Mr5jAAAAAElFTkSuQmCC;fontFamily=Times New Roman;" parent="1" vertex="1">
          <mxGeometry x="100" y="10" width="679.42" height="235.32" as="geometry" />
        </mxCell>
        <mxCell id="0I8QPs94bmx3Hb5hVzxW-2" value="Content" style="rounded=0;whiteSpace=wrap;html=1;dashed=1;fillColor=#FFFFFF;fontColor=#333333;strokeColor=#666666;fontFamily=Times New Roman;" parent="1" vertex="1">
          <mxGeometry x="230" y="440" width="240" height="60" as="geometry" />
        </mxCell>
        <mxCell id="0I8QPs94bmx3Hb5hVzxW-7" value="Margin" style="text;html=1;strokeColor=none;fillColor=none;align=center;verticalAlign=middle;whiteSpace=wrap;rounded=0;fontFamily=Times New Roman;" parent="1" vertex="1">
          <mxGeometry x="320" y="350" width="60" height="30" as="geometry" />
        </mxCell>
        <mxCell id="0I8QPs94bmx3Hb5hVzxW-8" value="Border" style="text;html=1;strokeColor=none;fillColor=none;align=center;verticalAlign=middle;whiteSpace=wrap;rounded=0;fontFamily=Times New Roman;" parent="1" vertex="1">
          <mxGeometry x="320" y="380" width="60" height="30" as="geometry" />
        </mxCell>
        <mxCell id="0I8QPs94bmx3Hb5hVzxW-9" value="Padding" style="text;html=1;strokeColor=none;fillColor=none;align=center;verticalAlign=middle;whiteSpace=wrap;rounded=0;fontFamily=Times New Roman;" parent="1" vertex="1">
          <mxGeometry x="320" y="410" width="60" height="30" as="geometry" />
        </mxCell>
        <mxCell id="0I8QPs94bmx3Hb5hVzxW-10" value="" style="endArrow=classic;startArrow=classic;html=1;rounded=0;dashed=1;fontFamily=Times New Roman;" parent="1" edge="1">
          <mxGeometry width="50" height="50" relative="1" as="geometry">
            <mxPoint x="250" y="440" as="sourcePoint" />
            <mxPoint x="250" y="500" as="targetPoint" />
          </mxGeometry>
        </mxCell>
        <mxCell id="0I8QPs94bmx3Hb5hVzxW-11" value="" style="endArrow=classic;startArrow=classic;html=1;rounded=0;exitX=0;exitY=0.75;exitDx=0;exitDy=0;entryX=1;entryY=0.75;entryDx=0;entryDy=0;dashed=1;fontFamily=Times New Roman;" parent="1" source="0I8QPs94bmx3Hb5hVzxW-2" target="0I8QPs94bmx3Hb5hVzxW-2" edge="1">
          <mxGeometry width="50" height="50" relative="1" as="geometry">
            <mxPoint x="250" y="450" as="sourcePoint" />
            <mxPoint x="250" y="510" as="targetPoint" />
          </mxGeometry>
        </mxCell>
        <mxCell id="0I8QPs94bmx3Hb5hVzxW-12" value="Width" style="text;html=1;strokeColor=none;fillColor=none;align=center;verticalAlign=middle;whiteSpace=wrap;rounded=0;fontFamily=Times New Roman;" parent="1" vertex="1">
          <mxGeometry x="250" y="485" width="60" height="15" as="geometry" />
        </mxCell>
        <mxCell id="0I8QPs94bmx3Hb5hVzxW-13" value="Height" style="text;html=1;strokeColor=none;fillColor=none;align=left;verticalAlign=middle;whiteSpace=wrap;rounded=0;fontFamily=Times New Roman;" parent="1" vertex="1">
          <mxGeometry x="250" y="455" width="60" height="15" as="geometry" />
        </mxCell>
      </root>
    </mxGraphModel>
  </diagram>
</mxfile>
